<svg id="圖層_1" data-name="圖層 1" xmlns="http://www.w3.org/2000/svg" viewBox="0 0 50 50"><defs><style>.cls-1,.cls-2{fill:none;stroke:#fef760;stroke-linejoin:round;}.cls-2{stroke-linecap:round;}</style></defs><title>icon</title><path class="cls-1" d="M9.94,21.92c0-2.55,6.92-4.61,15.46-4.61,7.37,0,13.54,1.54,15.08,3.6a1.72,1.72,0,0,1,.37,1"/><path class="cls-2" d="M11.46,19.93s-3.91,1.25-4.3,13.54"/><path class="cls-2" d="M39.21,19.85s3.75,1.27,4.44,13.4"/><path class="cls-1" d="M43.65,33.25s.71-.26.35,1.15C43.39,36.88,35.67,39,25.4,39S7.27,36.91,6.79,34.4c-.19-1,.35-1.15.35-1.15"/><path class="cls-1" d="M25.4,26.54c-8.54,0-15.46-2.07-15.46-4.62"/><path class="cls-1" d="M38.38,24.43c-2.76,1.27-7.54,2.11-13,2.11"/><path class="cls-1" d="M40.85,21.92c0,.93-.91,1.79-2.47,2.51"/><path class="cls-1" d="M25.4,37.88c10.08,0,18.25-2.07,18.25-4.63"/><path class="cls-1" d="M7.14,33.25c0,2.56,8.17,4.63,18.26,4.63"/></svg>