<svg id="圖層_1" data-name="圖層 1" xmlns="http://www.w3.org/2000/svg" viewBox="0 0 50 50"><defs><style>.cls-1,.cls-2{fill:none;stroke:#fef760;}.cls-1{stroke-linejoin:round;}.cls-2{stroke-miterlimit:10;stroke-width:0.25px;}</style></defs><title>icon</title><path class="cls-1" d="M8,33.71c-1.79-2.9-2.34-7.26,3.54-12.65A29.48,29.48,0,0,1,21.7,15c4.26-1.5,10.45-2.89,15.75-1,9.13,3.24,9.13,11.18,0,17.91a31.55,31.55,0,0,1-21.94,6.2A9.79,9.79,0,0,1,8,33.71Z"/><path class="cls-1" d="M43.36,25.39C42.66,29.51,32.61,46.21,13,37.58"/><path class="cls-2" d="M35.21,13.11s.48-3.54,4.5-1.55.92,4.34.92,4.34"/><path class="cls-2" d="M8,33.71S5.1,35.32,6,36.89a3.54,3.54,0,0,0,5.82.22"/></svg>