<svg id="圖層_1" data-name="圖層 1" xmlns="http://www.w3.org/2000/svg" viewBox="0 0 50 50"><defs><style>.cls-1,.cls-2{fill:none;stroke:#fef760;stroke-linecap:round;stroke-linejoin:round;}.cls-2{stroke-width:0.25px;}</style></defs><title>icon</title><ellipse class="cls-1" cx="31.01" cy="11.95" rx="2.84" ry="11.06" transform="translate(8.52 36.41) rotate(-68.48)"/><path class="cls-1" d="M30.55,43.25c-.58,1.46-5.65.82-11.33-1.42S9.4,36.6,10,35.14"/><line class="cls-1" x1="9.98" y1="35.14" x2="20.72" y2="7.89"/><line class="cls-1" x1="30.55" y1="43.25" x2="41.29" y2="16"/><path class="cls-2" d="M29.05,16.9c-5.68-2.24-9.81-5.24-9.24-6.7"/><path class="cls-2" d="M40.38,18.31c-.57,1.46-5.64.83-11.33-1.41"/><path class="cls-2" d="M28.54,18.2C22.86,16,18.72,13,19.29,11.51"/><path class="cls-2" d="M39.86,19.62c-.57,1.46-5.64.82-11.32-1.42"/><path class="cls-2" d="M28,19.51c-5.68-2.24-9.82-5.24-9.24-6.69"/><path class="cls-2" d="M39.35,20.93c-.58,1.45-5.65.82-11.33-1.42"/><path class="cls-2" d="M31.32,41.29c-.57,1.46-5.65.82-11.33-1.42s-9.81-5.24-9.24-6.69"/><path class="cls-2" d="M31.84,40c-.58,1.46-5.65.82-11.33-1.42s-9.82-5.23-9.24-6.69"/><path class="cls-2" d="M32.35,38.67c-.57,1.46-5.64.83-11.32-1.41s-9.82-5.24-9.25-6.7"/><path class="cls-2" d="M35.7,21.71s-2.21,1.91-.4,1.94a6.8,6.8,0,0,0,1.79-.19c.8-.2.55-1.09.06-1.73"/></svg>