<svg id="圖層_1" data-name="圖層 1" xmlns="http://www.w3.org/2000/svg" viewBox="0 0 50 50"><defs><style>.cls-1,.cls-2{fill:none;stroke:#fef760;stroke-linecap:round;stroke-linejoin:round;}.cls-2{stroke-width:0.25px;}</style></defs><title>icon</title><polyline class="cls-1" points="15.51 26.2 14.63 26.65 12.33 27.84 24.82 34.32 41.93 24.49 39.39 23.18"/><line class="cls-1" x1="24.82" y1="45.96" x2="24.82" y2="34.32"/><polyline class="cls-1" points="41.93 36.87 24.82 45.99 12.33 39.81 12.33 27.84 7.37 15.05 15.52 12.37"/><line class="cls-1" x1="41.93" y1="36.8" x2="41.93" y2="24.49"/><polygon class="cls-2" points="19.15 38.59 19.15 37.19 16.68 35.92 16.68 37.26 19.15 38.59"/><circle class="cls-1" cx="27.13" cy="17.93" r="12.87"/><path class="cls-1" d="M29.4,30.61C23.14,32,18.3,29.94,15.51,26.2a13.24,13.24,0,0,1-2.41-5.64C11.72,13.09,17.21,6.84,24.17,5.41"/></svg>