<svg id="圖層_1" data-name="圖層 1" xmlns="http://www.w3.org/2000/svg" viewBox="0 0 50 50"><defs><style>.cls-1,.cls-2{fill:none;stroke:#fef760;stroke-linecap:round;stroke-linejoin:round;}.cls-2{stroke-width:0.25px;}</style></defs><title>icon</title><path class="cls-1" d="M24,9.15,23.7,4.09a1,1,0,0,1,1-1h0a1,1,0,0,1,1,1l-.28,5.06"/><path class="cls-1" d="M28.38,29.37a13,13,0,0,0,2.82-2.15s2.15-16.38-5.33-18a6.14,6.14,0,0,0-1.32-.14,6,6,0,0,0-1.31.14C18.16,10.34,17.75,17,18,21.62"/><path class="cls-2" d="M28.38,14.58a3.93,3.93,0,0,0-2.79-2.84,4.09,4.09,0,0,0-1.61,0,3.72,3.72,0,0,0-2.74,2.71"/><path class="cls-1" d="M25.08,29.19l-.26-4.71a1,1,0,0,1,.94-1h0a1,1,0,0,1,.94,1l-.26,4.71"/><path class="cls-1" d="M24.26,45.14c-2-4.68-5.64-14.76.83-15.85a8.47,8.47,0,0,1,2.38,0S22,31.94,25.23,45.4C25.37,46,24.51,45.71,24.26,45.14Z"/><path class="cls-1" d="M25.06,45.72c-.13-.12,5.72,2.61,6.24-6.48,0,0,1.27-10-3.83-10"/><path class="cls-2" d="M26.43,33.61c1.13-.45,2.95-.2,3,2.78"/><path class="cls-1" d="M22.05,39.21c-2.3-.13-6.55-1-6.55-5.59,0-6.53-1.11-11.94,4.55-11.33A4.68,4.68,0,0,1,25,27.19"/><path class="cls-1" d="M19.8,22.24,19.56,18a.85.85,0,0,1,.84-.86h0a.84.84,0,0,1,.84.86L21,22.24"/></svg>