<svg id="圖層_1" data-name="圖層 1" xmlns="http://www.w3.org/2000/svg" viewBox="0 0 50 50"><defs><style>.cls-1,.cls-2{fill:none;stroke:#fef760;}.cls-1{stroke-linecap:round;stroke-linejoin:round;}.cls-2{stroke-miterlimit:10;}.cls-3{fill:#fef760;}</style></defs><title>icon</title><polyline class="cls-1" points="22.43 38.93 24.43 7.58 8.91 31.9"/><line class="cls-1" x1="43.34" y1="34.49" x2="24.43" y2="7.58"/><ellipse class="cls-2" cx="25" cy="34.49" rx="18.34" ry="5.04"/><path class="cls-2" d="M6.66,34.49S7.4,42.16,25,42.16s18.34-7.67,18.34-7.67"/><ellipse class="cls-3" cx="17.65" cy="35.65" rx="0.54" ry="0.29"/><ellipse class="cls-3" cx="19.48" cy="35.65" rx="0.54" ry="0.29"/><ellipse class="cls-3" cx="25.54" cy="36.23" rx="0.54" ry="0.29"/><ellipse class="cls-3" cx="24.43" cy="35.36" rx="0.54" ry="0.29"/><ellipse class="cls-3" cx="21.06" cy="36.53" rx="0.54" ry="0.29"/><ellipse class="cls-3" cx="17.66" cy="37.11" rx="0.54" ry="0.29"/><ellipse class="cls-3" cx="19.49" cy="37.11" rx="0.54" ry="0.29"/><ellipse class="cls-3" cx="25.55" cy="37.69" rx="0.54" ry="0.29"/><ellipse class="cls-3" cx="24.43" cy="36.82" rx="0.54" ry="0.29"/><ellipse class="cls-3" cx="21.07" cy="37.98" rx="0.54" ry="0.29"/><ellipse class="cls-3" cx="20.47" cy="34.1" rx="0.54" ry="0.29"/><ellipse class="cls-3" cx="22.3" cy="34.1" rx="0.54" ry="0.29"/><ellipse class="cls-3" cx="28.37" cy="34.68" rx="0.54" ry="0.29"/><ellipse class="cls-3" cx="27.25" cy="33.8" rx="0.54" ry="0.29"/><ellipse class="cls-3" cx="23.89" cy="34.97" rx="0.54" ry="0.29"/><ellipse class="cls-3" cx="20.48" cy="35.55" rx="0.54" ry="0.29"/><ellipse class="cls-3" cx="22.31" cy="35.55" rx="0.54" ry="0.29"/><ellipse class="cls-3" cx="28.38" cy="36.14" rx="0.54" ry="0.29"/><ellipse class="cls-3" cx="27.26" cy="35.26" rx="0.54" ry="0.29"/><ellipse class="cls-3" cx="23.9" cy="36.43" rx="0.54" ry="0.29"/><ellipse class="cls-3" cx="26.1" cy="35.21" rx="0.54" ry="0.29"/><ellipse class="cls-3" cx="27.92" cy="35.21" rx="0.54" ry="0.29"/><ellipse class="cls-3" cx="33.99" cy="35.8" rx="0.54" ry="0.29"/><ellipse class="cls-3" cx="32.87" cy="34.92" rx="0.54" ry="0.29"/><ellipse class="cls-3" cx="29.51" cy="36.09" rx="0.54" ry="0.29"/><ellipse class="cls-3" cx="26.1" cy="36.67" rx="0.54" ry="0.29"/><ellipse class="cls-3" cx="27.93" cy="36.67" rx="0.54" ry="0.29"/><ellipse class="cls-3" cx="34" cy="37.25" rx="0.54" ry="0.29"/><ellipse class="cls-3" cx="32.88" cy="36.38" rx="0.54" ry="0.29"/><ellipse class="cls-3" cx="29.52" cy="37.55" rx="0.54" ry="0.29"/><ellipse class="cls-3" cx="14.24" cy="34.48" rx="0.54" ry="0.29"/><ellipse class="cls-3" cx="16.07" cy="34.48" rx="0.54" ry="0.29"/><ellipse class="cls-3" cx="22.13" cy="35.07" rx="0.54" ry="0.29"/><ellipse class="cls-3" cx="21.01" cy="34.19" rx="0.54" ry="0.29"/><ellipse class="cls-3" cx="17.65" cy="35.36" rx="0.54" ry="0.29"/><ellipse class="cls-3" cx="14.25" cy="35.94" rx="0.54" ry="0.29"/><ellipse class="cls-3" cx="16.07" cy="35.94" rx="0.54" ry="0.29"/><ellipse class="cls-3" cx="22.14" cy="36.53" rx="0.54" ry="0.29"/><ellipse class="cls-3" cx="21.02" cy="35.65" rx="0.54" ry="0.29"/><ellipse class="cls-3" cx="17.66" cy="36.82" rx="0.54" ry="0.29"/><ellipse class="cls-3" cx="26.11" cy="34.05" rx="0.54" ry="0.29"/><ellipse class="cls-3" cx="27.94" cy="34.05" rx="0.54" ry="0.29"/><ellipse class="cls-3" cx="34" cy="34.63" rx="0.54" ry="0.29"/><ellipse class="cls-3" cx="32.88" cy="33.76" rx="0.54" ry="0.29"/><ellipse class="cls-3" cx="29.52" cy="34.92" rx="0.54" ry="0.29"/><ellipse class="cls-3" cx="26.12" cy="35.5" rx="0.54" ry="0.29"/><ellipse class="cls-3" cx="27.95" cy="35.5" rx="0.54" ry="0.29"/><ellipse class="cls-3" cx="34.01" cy="36.09" rx="0.54" ry="0.29"/><ellipse class="cls-3" cx="32.89" cy="35.21" rx="0.54" ry="0.29"/><ellipse class="cls-3" cx="29.53" cy="36.38" rx="0.54" ry="0.29"/></svg>