<svg id="圖層_1" data-name="圖層 1" xmlns="http://www.w3.org/2000/svg" viewBox="0 0 50 50"><defs><style>.cls-1,.cls-2,.cls-3{fill:none;stroke:#fef760;stroke-linejoin:round;}.cls-2,.cls-3{stroke-linecap:round;}.cls-3{stroke-width:0.25px;}</style></defs><title>icon</title><path class="cls-1" d="M18.2,21.54c-4.91-.22-8.71-1.68-8.71-3.44s3.82-3.24,8.76-3.45"/><path class="cls-1" d="M20.14,14.63l.74,0c4.88.24,8.63,1.69,8.63,3.45s-4.14,3.35-9.37,3.46"/><path class="cls-2" d="M29.51,37.72c0,1.55-4.48,2.8-10,2.8s-10-1.25-10-2.8"/><line class="cls-2" x1="9.49" y1="37.72" x2="9.49" y2="18.1"/><line class="cls-2" x1="29.51" y1="18.1" x2="29.51" y2="37.72"/><path class="cls-2" d="M9.47,18.57s-2.9-.75-3.36,1.16,3.36,8.59,3.36,8.59-6.25-6-5.21-9.28S10,17,10,17"/><path class="cls-3" d="M20.14,10.53V23.94H18.2V10.53A2.35,2.35,0,0,1,20.14,10.53Z"/><path class="cls-2" d="M44.21,20.46,29.51,37.72l.07-2.2A1.7,1.7,0,0,1,30,34.47L43.6,19.64"/><path class="cls-2" d="M47.34,18.48c.65.65.7,1.59.07,1.87a3.2,3.2,0,0,1-4.18-4.41c.26-.53,1.06-.51,1.63.06Z"/><line class="cls-3" x1="29.51" y1="20.95" x2="39.1" y2="24.54"/></svg>