<svg id="圖層_1" data-name="圖層 1" xmlns="http://www.w3.org/2000/svg" viewBox="0 0 50 50"><defs><style>.cls-1,.cls-2{fill:none;stroke:#fef760;stroke-linecap:round;stroke-linejoin:round;}.cls-1{stroke-width:0.25px;}</style></defs><title>icon</title><path class="cls-1" d="M34.21,13.35c.71.43,1.11.92,1.11,1.44,0,1.66-4.11,3-9.18,3"/><line class="cls-2" x1="16.96" y1="20.34" x2="16.96" y2="39.91"/><line class="cls-2" x1="35.32" y1="20.34" x2="35.32" y2="39.91"/><path class="cls-2" d="M26.14,23.3c-5.07,0-9.18-1.35-9.18-3"/><path class="cls-2" d="M35.32,20.29c0,1.66-4.11,3-9.18,3"/><line class="cls-1" x1="35.32" y1="14.79" x2="35.32" y2="20.34"/><ellipse class="cls-2" cx="23.39" cy="10.81" rx="9.19" ry="2.3" transform="translate(-2.26 8.32) rotate(-19.27)"/><path class="cls-2" d="M33.73,12.93c.39,1.21-3.18,3.55-8,5.22s-9,2-9.39.82"/><line class="cls-2" x1="16.36" y1="18.97" x2="14.71" y2="13.83"/><line class="cls-2" x1="33.73" y1="12.93" x2="32.07" y2="7.79"/><ellipse class="cls-1" cx="23.4" cy="10.86" rx="2.5" ry="0.69" transform="translate(-2.27 8.34) rotate(-19.29)"/><path class="cls-2" d="M26.14,42.92c-5.07,0-9.18-1.35-9.18-3"/><path class="cls-2" d="M35.32,39.91c0,1.66-4.11,3-9.18,3"/></svg>