<svg id="圖層_1" data-name="圖層 1" xmlns="http://www.w3.org/2000/svg" viewBox="0 0 50 50"><defs><style>.cls-1,.cls-2{fill:none;stroke:#fef760;stroke-miterlimit:10;}.cls-2{stroke-width:0.25px;}</style></defs><title>icon</title><path class="cls-1" d="M31.17,37.47a26.9,26.9,0,0,1-5.05.6c-5.11,0-9.26-1.38-9.26-3.08s4.15-3.07,9.26-3.07h.3"/><path class="cls-1" d="M35.38,38.18c0,1.7-4.14,3.35-9.26,3.35s-9.26-1.38-9.26-3.08"/><line class="cls-1" x1="16.86" y1="34.99" x2="16.86" y2="38.45"/><path class="cls-1" d="M16.86,35.28,8.71,13.9a1.24,1.24,0,0,1,.69-1.62l.22-.09a1.24,1.24,0,0,1,1.61.68l8.29,20"/><ellipse class="cls-2" cx="10.54" cy="14.46" rx="0.43" ry="0.71" transform="translate(-4.82 5.28) rotate(-23.05)"/><path class="cls-2" d="M19.57,37a21.92,21.92,0,0,1,6.55-.9c.6,0,1.19,0,1.76.06"/><ellipse class="cls-1" cx="35.91" cy="31.37" rx="9.26" ry="3.07"/><path class="cls-1" d="M45.17,34.83c0,1.7-4.15,3.07-9.26,3.07s-9.26-1.37-9.26-3.07"/><line class="cls-1" x1="26.65" y1="31.37" x2="26.65" y2="34.83"/><line class="cls-1" x1="45.17" y1="31.37" x2="45.17" y2="34.83"/><path class="cls-1" d="M26.65,31.65,18.49,10.27a1.25,1.25,0,0,1,.7-1.62l.22-.09A1.25,1.25,0,0,1,21,9.24l8.28,20"/><ellipse class="cls-2" cx="20.32" cy="10.83" rx="0.43" ry="0.71" transform="translate(-2.62 8.82) rotate(-23.05)"/><path class="cls-2" d="M29.36,33.38a21.55,21.55,0,0,1,6.55-.9,21.48,21.48,0,0,1,6.54.9"/></svg>