<svg id="圖層_1" data-name="圖層 1" xmlns="http://www.w3.org/2000/svg" viewBox="0 0 50 50"><defs><style>.cls-1,.cls-2,.cls-3,.cls-4{fill:none;stroke:#fef760;stroke-linejoin:round;}.cls-1,.cls-3{stroke-linecap:round;}.cls-2,.cls-3{stroke-width:0.25px;}</style></defs><title>icon</title><path class="cls-1" d="M42.93,32.26c.84,1.54-3,5.25-8.63,8.29s-10.81,4.27-11.65,2.73"/><line class="cls-1" x1="10.89" y1="21.65" x2="22.65" y2="43.28"/><line class="cls-1" x1="31.18" y1="10.63" x2="42.93" y2="32.26"/><path class="cls-2" d="M23.92,21.45c-5.6,3.05-10.81,4.27-11.65,2.74"/><path class="cls-2" d="M32.55,13.16c.9,1.65-3,5.25-8.63,8.29"/><path class="cls-2" d="M24.45,22.42c-5.6,3-10.82,4.27-11.65,2.73"/><path class="cls-2" d="M33.08,14.13c.89,1.64-3,5.25-8.63,8.29"/><path class="cls-2" d="M32.79,37.77C27.19,40.82,22,42,21.14,40.5"/><path class="cls-2" d="M41.42,29.48c.9,1.65-3,5.25-8.63,8.29"/><path class="cls-2" d="M33.32,38.74c-5.6,3-10.82,4.27-11.65,2.73"/><path class="cls-2" d="M42,30.45c.89,1.64-3,5.25-8.63,8.29"/><path class="cls-3" d="M11.21,21.26s-4.34-.52-3.75.66S8.21,23.67,11.8,23"/><path class="cls-3" d="M30.59,10.31s1.93-3.93,2.6-2.8,1.06,1.58-1.46,4.24"/><path class="cls-4" d="M18.12,15c-4.53,2.74-7.73,5.7-7.11,6.83.69,1.28,5.8-.14,11.4-3.19s9.47-6.76,8.77-8c-.39-.71-2.21-.73-4.41.36"/><ellipse class="cls-3" cx="21.15" cy="10.77" rx="4.7" ry="1.28" transform="translate(-2.57 11.41) rotate(-28.52)"/><path class="cls-3" d="M27.31,12.24c.38.71-1.16,2.28-3.44,3.52s-4.44,1.68-4.83,1"/><line class="cls-3" x1="17.02" y1="13.01" x2="19.04" y2="16.73"/><line class="cls-3" x1="27.31" y1="12.24" x2="25.28" y2="8.52"/><path class="cls-3" d="M19.06,11.91a2.39,2.39,0,1,1,4.19-2.28"/></svg>