<svg id="圖層_1" data-name="圖層 1" xmlns="http://www.w3.org/2000/svg" viewBox="0 0 50 50"><defs><style>.cls-1,.cls-2{fill:none;stroke:#fef760;stroke-linecap:round;stroke-linejoin:round;}.cls-2{stroke-width:0.25px;}</style></defs><title>icon</title><ellipse class="cls-1" cx="14.74" cy="25.36" rx="8.26" ry="12.13" transform="translate(-0.9 0.55) rotate(-2.06)"/><path class="cls-1" d="M35.78,12.46c4-.14,7.49,5.17,7.73,11.87s-2.83,12.24-6.86,12.39"/><line class="cls-1" x1="15.17" y1="37.49" x2="36.65" y2="36.72"/><line class="cls-1" x1="14.3" y1="13.24" x2="35.78" y2="12.46"/><path class="cls-2" d="M31.36,24.78C31.6,31.48,28.1,37,23.54,37.2"/><path class="cls-2" d="M22.67,13c4.55-.17,8.44,5.13,8.69,11.83"/><path class="cls-2" d="M39.81,24.48c.24,6.69-3.26,12.25-7.81,12.42"/><path class="cls-2" d="M31.12,12.65c4.56-.17,8.45,5.13,8.69,11.83"/><path class="cls-2" d="M13.88,25.71c-.17-4.79,1.58-9,4.25-11.07"/><path class="cls-2" d="M18.61,36.23c-2.66-1.95-4.56-5.9-4.73-10.52"/></svg>