<svg id="圖層_1" data-name="圖層 1" xmlns="http://www.w3.org/2000/svg" viewBox="0 0 50 50"><defs><style>.cls-1,.cls-2{fill:none;stroke:#fef760;stroke-linecap:round;stroke-linejoin:round;}.cls-2{stroke-width:0.5px;}</style></defs><title>icon</title><ellipse class="cls-1" cx="22.21" cy="22.89" rx="21.29" ry="3.89" transform="translate(-9.65 24.44) rotate(-48.65)"/><path class="cls-1" d="M10.14,39.41l4.43,2.52a3.94,3.94,0,0,0,1.82.35c2.1,0,6.3-1.07,15.57-11.83,6.32-7.33,8-11.69,8.57-14a3.72,3.72,0,0,0-.62-3.11L37,8.93"/><path class="cls-2" d="M34,14.38c-2.66,1.84-6.24,5-11,10.41-4.53,5.15-7.06,8.84-8.43,11.48"/><path class="cls-1" d="M8.14,38.87l.48.42c1.62,1.42,9.22-4.58,17-13.41S38.37,8.75,36.75,7.33l-.48-.42"/></svg>