<?xml version="1.0" encoding="UTF-8"?>
<svg id="_圖層_1" data-name="圖層 1" xmlns="http://www.w3.org/2000/svg" viewBox="0 0 50 50">
  <defs>
    <style>
      .cls-1 {
        stroke-width: .25px;
      }

      .cls-1, .cls-2, .cls-3, .cls-4 {
        fill: none;
        stroke: #fef760;
        stroke-linecap: round;
        stroke-linejoin: round;
      }

      .cls-2 {
        stroke-width: .5px;
      }

      .cls-3 {
        stroke-width: 1px;
      }
    </style>
  </defs>
  <ellipse class="cls-3" cx="27.78" cy="21.92" rx="4.68" ry="20.36" transform="translate(-6.9 28.93) rotate(-49.71)"/>
  <path class="cls-4" d="M12.13,8.52l-4.82,5.26c-.83,1.24-1.11,2.66-.78,3.87.71,2.58,2.82,7.29,10.73,14.21,11.89,10.1,16.88,10.26,19.51,9.68.78-.14,1.57-.46,2.28-.93l3.69-4.93"/>
  <path class="cls-2" d="M39.06,33.89c-1.77-2.74-5.05-6.38-10.91-11.18-6.16-5.04-10.79-7.76-14.24-9.17"/>
  <path class="cls-4" d="M9.54,13.42c-4.48-1.78-2.11-3.63-2.11-3.63l2.19,1"/>
  <path class="cls-4" d="M38.94,39.09c3.76,2.77,4.66.11,4.66.11l-1.97-1.3"/>
  <path class="cls-1" d="M9.62,10.79s5.89,18.31,31.35,27.26"/>
  <path class="cls-1" d="M8.88,11.66s5.89,18.31,31.35,27.26"/>
</svg>