<?xml version="1.0" encoding="UTF-8"?>
<svg id="_圖層_1" data-name="圖層 1" xmlns="http://www.w3.org/2000/svg" viewBox="0 0 50 50">
  <defs>
    <style>
      .cls-1 {
        stroke-width: .5px;
      }

      .cls-1, .cls-2 {
        fill: none;
        stroke: #fdf660;
        stroke-linejoin: round;
      }
    </style>
  </defs>
  <rect class="cls-1" x="29.62" y="8.12" width="6.57" height=".75" rx=".35" ry=".35" transform="translate(4.4 -10.01) rotate(18.51)"/>
  <g>
    <path class="cls-2" d="M40.68,8.85c-.09-.13-.21-.24-.35-.33l-12.13-3.86c-.57-.35-1.31-.18-1.67.39l-17.81,28.84c-.35.57-.18,1.31.39,1.67l8.17,9.38c.11.07.22.11.34.14"/>
    <path class="cls-2" d="M41.28,10.59c.35-.57.18-1.31-.39-1.67l-.21-.07c.27.39.3.91.04,1.33l-21.77,34.36c-.29.46-.83.66-1.33.53l.23.26c.57.35,1.31.18,1.67-.39L41.28,10.59Z"/>
  </g>
  <path class="cls-1" d="M25.18,7.23s3.09,5.66,14.07,5.26"/>
  <path class="cls-1" d="M24.11,8.75s3.09,5.66,14.07,5.26"/>
  <path class="cls-1" d="M23.18,10.53s3.09,5.66,14.07,5.26"/>
  <path class="cls-1" d="M22.1,12.05s3.09,5.66,14.07,5.26"/>
  <path class="cls-1" d="M21.13,13.98s3.03,5.61,13.92,5.16"/>
  <path class="cls-1" d="M20.06,15.5s3.03,5.61,13.92,5.16"/>
  <path class="cls-1" d="M19.12,17.27s3.03,5.61,13.92,5.16"/>
  <path class="cls-1" d="M18.04,18.79s3.03,5.61,13.92,5.16"/>
  <path class="cls-1" d="M17.04,20.21s3.03,5.61,13.92,5.16"/>
  <path class="cls-1" d="M16.11,21.98s3.03,5.61,13.92,5.16"/>
  <path class="cls-1" d="M15.03,23.5s3.03,5.61,13.92,5.16"/>
  <rect class="cls-1" x="12.38" y="32.77" width="1.15" height="4.17" rx=".56" ry=".56" transform="translate(19.87 -1.68) rotate(31.1)"/>
  <rect class="cls-1" x="16.24" y="36.73" width="1.23" height="4.63" rx=".6" ry=".6" transform="translate(22.59 -3.1) rotate(31.1)"/>
  <rect class="cls-1" x="18.21" y="37.65" width="1.53" height="5.82" rx=".75" ry=".75" transform="translate(23.68 -3.97) rotate(31.1)"/>
  <rect class="cls-1" x="10.91" y="30.49" width="1.1" height="5.08" rx=".54" ry=".54" transform="translate(18.71 -1.17) rotate(31.1)"/>
  <path class="cls-1" d="M14.09,25.42s3.03,5.61,13.92,5.16"/>
  <path class="cls-1" d="M13.08,26.84s3.03,5.61,13.92,5.16"/>
  <path class="cls-1" d="M12.15,28.61s3.03,5.61,13.92,5.16"/>
</svg>