<?xml version="1.0" encoding="UTF-8"?>
<svg id="_圖層_1" data-name="圖層 1" xmlns="http://www.w3.org/2000/svg" viewBox="0 0 50 50">
  <defs>
    <style>
      .cls-1, .cls-2 {
        fill: none;
        stroke: #fef760;
        stroke-miterlimit: 10;
      }

      .cls-2 {
        stroke-linecap: round;
      }
    </style>
  </defs>
  <ellipse class="cls-1" cx="29.08" cy="18.69" rx="1.56" ry=".55"/>
  <polyline class="cls-1" points="27.52 18.69 28.06 20.83 29.93 20.83 30.64 18.69"/>
  <path class="cls-1" d="M30.24,20.02s5.36.6,6.65,1.84-.89,3.16-7.81,3.16-9.1-2-7.82-3.2,6.26-1.8,6.26-1.8"/>
  <path class="cls-2" d="M37.24,23.15s.64,2.63-8.16,2.93c-8.81-.3-8.16-2.93-8.16-2.93"/>
  <path class="cls-2" d="M37.05,24.62s2.9.62,3.23,4.86,1.67,14-11.2,14-11.54-9.79-11.21-14,3.24-4.86,3.24-4.86"/>
  <ellipse class="cls-2" cx="10.95" cy="24.56" rx="1.49" ry=".47"/>
  <path class="cls-2" d="M12.43,24.56c.88.85,1.65,1.81,2.29,2.85.74,1.39,1,2.37,3.08,3"/>
  <path class="cls-2" d="M18.13,36.92c-.44-.1-.88-.17-1.33-.22-1.79.19-3.47-.91-4-2.63-.88-2.78-.53-6-1.38-7.09s-1.93-2.41-1.93-2.41"/>
  <path class="cls-2" d="M19.82,25.29s-.29-2.58-.44-3.42c-.34-2.32-.34-4.68,0-7,.55-2.82,3.22-6.62,9.7-6.66"/>
  <path class="cls-2" d="M38.34,25.29c.09-1.15.23-2.29.44-3.42.36-2.32.36-4.68,0-7-.55-2.82-3.23-6.62-9.7-6.66"/>
  <path class="cls-2" d="M18.81,26.4l-.68-4.3s-1.53-6.09.68-9.89,4.64-5.69,10.27-5.69"/>
  <path class="cls-2" d="M39.35,26.4l.68-4.3s1.52-6.14-.68-9.89-4.64-5.69-10.27-5.69"/>
</svg>