<?xml version="1.0" encoding="UTF-8"?>
<svg id="_圖層_1" data-name="圖層 1" xmlns="http://www.w3.org/2000/svg" viewBox="0 0 50 50">
  <defs>
    <style>
      .cls-1, .cls-2, .cls-3, .cls-4 {
        fill: none;
        stroke: #fdf660;
        stroke-linejoin: round;
      }

      .cls-1, .cls-3 {
        stroke-width: .25px;
      }

      .cls-3, .cls-4 {
        stroke-linecap: round;
      }
    </style>
  </defs>
  <path class="cls-4" d="M42.71,31.83c.83,1.54-3.03,5.25-8.63,8.29-5.6,3.04-10.82,4.27-11.65,2.73"/>
  <line class="cls-4" x1="10.67" y1="21.22" x2="22.43" y2="42.85"/>
  <line class="cls-4" x1="30.95" y1="10.19" x2="42.71" y2="31.83"/>
  <path class="cls-1" d="M23.7,21.02c-5.6,3.04-10.82,4.27-11.65,2.73"/>
  <path class="cls-1" d="M32.33,12.73c.89,1.65-3.03,5.25-8.63,8.29"/>
  <path class="cls-1" d="M24.22,21.99c-5.6,3.04-10.82,4.27-11.65,2.73"/>
  <path class="cls-1" d="M32.85,13.7c.89,1.65-3.03,5.25-8.63,8.29"/>
  <path class="cls-1" d="M32.57,37.34c-5.6,3.04-10.82,4.27-11.65,2.73"/>
  <path class="cls-1" d="M41.2,29.05c.89,1.65-3.03,5.25-8.63,8.29"/>
  <path class="cls-1" d="M33.09,38.31c-5.6,3.04-10.82,4.27-11.65,2.73"/>
  <path class="cls-1" d="M41.72,30.02c.89,1.65-3.03,5.25-8.63,8.29"/>
  <path class="cls-3" d="M10.99,20.83s-4.34-.52-3.75.66.75,1.75,4.34,1.08"/>
  <path class="cls-3" d="M30.37,9.87s1.93-3.92,2.6-2.79,1.06,1.58-1.46,4.23"/>
  <path class="cls-2" d="M14.74,14.96c-1.49,1.87-4.58,5.33-3.96,6.46.7,1.29,5.81-.14,11.41-3.18,5.6-3.04,9.46-6.76,8.76-8.05-.39-.71-6.08.1-7.94.28"/>
  <g>
    <ellipse class="cls-3" cx="16.85" cy="9" rx="4.7" ry="1.28" transform="translate(-2.25 9.14) rotate(-28.52)"/>
    <path class="cls-3" d="M23.01,10.47c.38.71-1.16,2.28-3.44,3.52-2.28,1.24-4.44,1.67-4.83.97"/>
    <line class="cls-3" x1="12.72" y1="11.24" x2="14.74" y2="14.96"/>
    <line class="cls-3" x1="23.01" y1="10.47" x2="20.99" y2="6.75"/>
  </g>
</svg>