<?xml version="1.0" encoding="UTF-8"?>
<svg id="_圖層_1" data-name="圖層 1" xmlns="http://www.w3.org/2000/svg" viewBox="0 0 50 50">
  <defs>
    <style>
      .cls-1 {
        fill: none;
        stroke: #fdf660;
        stroke-linecap: round;
        stroke-miterlimit: 10;
        stroke-width: .5px;
      }

      .cls-2 {
        fill: #fdf660;
      }
    </style>
  </defs>
  <g>
    <g>
      <path class="cls-2" d="M38.82,17.15c-5.48.45-9.62,5.16-7.67,10.61,2.15,6.01,10.27,6.48,13.62,1.22,2.21-3.48.52-8.82-3.06-10.75-.69-.37-1.97-.58-2.43-.97-.92-.76,1.15-.29,1.52-.15,9.5,3.45,6.42,17.01-3.22,16.2-10.14-.85-10.11-15.03-.81-16.5.63-.1,1.72-.39,2.06.34Z"/>
      <path class="cls-2" d="M39.05,24.78c.03,1.61-.22,3.23-.46,4.82-.05.31-.09.68-.45.34-.67-2.2.56-4.31-.46-6.51-1.47.87-1.69,2.99-1.36,4.49-1.36-1-.81-3.26-.18-4.56.52-1.07,1.69-1.74,1.32-3.18,1.85-.46.37,2.08.62,2.74.43,1.14,2.4,1.1,2.73,2.92.08.46.23,3.2-.29,3.2-.88-1.2.33-3.68-1.47-4.26Z"/>
    </g>
    <g>
      <g>
        <path class="cls-2" d="M4.27,28.61c.08.16.6.74,1.15,1.29l1.38,1.37c.55.55,1.14,1.07,1.3,1.15s.14-.18-.41-.73l-2.68-2.67c-.55-.55-.82-.57-.74-.41Z"/>
        <path class="cls-2" d="M3.49,26c.01.1.48.63,1.03,1.18l5.03,5c.55.55,1.09,1.01,1.18,1.03s-.09-.41-.64-.96l-5.63-5.6c-.55-.55-.98-.74-.96-.64Z"/>
        <path class="cls-2" d="M3.46,24.14c0,.08.44.59.99,1.14l7,6.96c.55.55,1.07.99,1.15.98s-.17-.48-.72-1.03l-7.37-7.33c-.55-.55-1.03-.8-1.04-.72Z"/>
        <path class="cls-2" d="M3.76,22.61c-.02.07.42.57.97,1.12l8.28,8.23c.55.55,1.06.98,1.13.96s-.21-.52-.76-1.07l-8.53-8.48c-.55-.55-1.06-.83-1.08-.76Z"/>
        <path class="cls-2" d="M4.27,21.3c-.03.06.4.56.96,1.11l9.12,9.07c.55.55,1.05.98,1.11.95s-.24-.55-.79-1.1l-9.29-9.24c-.55-.55-1.08-.85-1.11-.79Z"/>
        <path class="cls-2" d="M4.96,20.15s.39.54.94,1.09l9.62,9.56c.55.55,1.05.97,1.1.93s-.27-.58-.82-1.13l-9.69-9.63c-.55-.55-1.1-.87-1.14-.82Z"/>
        <path class="cls-2" d="M5.87,19.07l-.05.05c-.05.06.36.56.91,1.11l9.81,9.75c.55.55,1.06.96,1.12.9l.05-.05.03-.03s-.4-.51-.96-1.06l-9.81-9.76c-.55-.55-1.03-.98-1.06-.95l-.03.03Z"/>
        <path class="cls-2" d="M6.77,18.3s.36.52.91,1.07l9.71,9.66c.55.55,1.04.96,1.07.91s-.32-.63-.87-1.18l-9.64-9.59c-.55-.55-1.14-.9-1.19-.87Z"/>
        <path class="cls-2" d="M7.9,17.59c-.06.03.35.5.9,1.05l9.33,9.28c.55.55,1.03.95,1.06.9s-.35-.66-.9-1.21l-9.18-9.12c-.55-.55-1.16-.92-1.22-.89Z"/>
        <path class="cls-2" d="M9.19,17.05c-.06.02.34.49.89,1.04l8.61,8.56c.55.55,1.02.95,1.05.88s-.37-.68-.93-1.23l-8.38-8.33c-.55-.55-1.18-.95-1.24-.92Z"/>
        <path class="cls-2" d="M10.69,16.71c-.08.01.31.47.87,1.02l7.49,7.45c.55.55,1.02.94,1.03.86s-.42-.72-.97-1.27l-7.14-7.09c-.55-.55-1.21-.98-1.28-.96Z"/>
        <path class="cls-2" d="M20.09,24.09c-.01-.1-.47-.62-1.02-1.17l-5.23-5.2c-.55-.55-1.08-1.01-1.18-1.02s.1.42.66.97l5.8,5.77c.55.55.99.75.98.65Z"/>
        <path class="cls-2" d="M19.42,21.58c-.07-.15-.57-.72-1.13-1.27l-1.84-1.83c-.55-.55-1.13-1.05-1.28-1.12s-.1.23.46.78l3.01,2.99c.55.55.85.6.78.45Z"/>
      </g>
      <g>
        <path class="cls-2" d="M6.16,30.38c-.01.13.4.65.91,1.16s1.12,1.01,1.36,1.12.43-.12-.12-.67l-1.09-1.08c-.55-.55-1.05-.66-1.06-.53Z"/>
        <path class="cls-2" d="M6.47,28.86c-.03.11.39.65.94,1.2l2.23,2.21c.55.55,1.13,1.01,1.29,1.03s.12-.41-.43-.96l-2.89-2.88c-.55-.55-1.1-.71-1.14-.6Z"/>
        <path class="cls-2" d="M6.99,27.55c-.05.1.37.62.92,1.17l3.61,3.59c.55.55,1.11.99,1.24.97s0-.52-.54-1.07l-4.05-4.02c-.55-.55-1.14-.75-1.18-.65Z"/>
        <path class="cls-2" d="M7.65,26.37c-.05.09.35.61.91,1.16l4.52,4.49c.55.55,1.09.97,1.2.94s-.06-.58-.61-1.13l-4.8-4.77c-.55-.55-1.16-.77-1.21-.68Z"/>
        <path class="cls-2" d="M8.41,25.31c-.06.08.34.59.89,1.14l5.09,5.06c.55.55,1.08.96,1.18.91s-.11-.63-.66-1.18l-5.25-5.22c-.55-.55-1.18-.79-1.24-.71Z"/>
        <path class="cls-2" d="M9.38,24.23l-.08.08c-.08.09.3.61.86,1.16l5.4,5.36c.55.55,1.07.95,1.16.89s-.15-.68-.7-1.22l-5.46-5.43c-.55-.55-1.05-.95-1.12-.9l-.05.05Z"/>
        <path class="cls-2" d="M17.78,30.71c.06-.08-.34-.59-.89-1.14l-5.37-5.34c-.55-.55-1.07-.95-1.15-.88s.16.69.72,1.24l5.44,5.41c.55.55,1.18.79,1.24.71Z"/>
        <path class="cls-2" d="M18.56,29.65c.06-.09-.35-.61-.9-1.16l-5.05-5.02c-.55-.55-1.08-.95-1.16-.9s.14.66.69,1.21l5.21,5.18c.55.55,1.16.77,1.22.68Z"/>
        <path class="cls-2" d="M19.22,28.49c.05-.1-.37-.62-.92-1.17l-4.52-4.49c-.55-.55-1.08-.96-1.18-.91s.1.63.66,1.18l4.78,4.75c.55.55,1.14.75,1.19.65Z"/>
        <path class="cls-2" d="M19.76,27.19c.03-.11-.39-.64-.94-1.19l-3.7-3.68c-.55-.55-1.09-.97-1.2-.94s.06.59.61,1.14l4.09,4.07c.55.55,1.11.72,1.14.61Z"/>
        <path class="cls-2" d="M15.19,21.08c-.13.02.22.49.77,1.04l3.06,3.04c.55.55,1.02.93,1.03.85s.05-.34.05-.38-.44-.62-1-1.17l-2.44-2.43c-.55-.55-1.34-.97-1.47-.94Z"/>
        <path class="cls-2" d="M18.73,22.26c-.55-.55-1.15-1.04-1.34-1.09s-.23.32.32.87l1.38,1.37c.55.55,1,.99,1,.98s-.03-.18-.06-.36-.62-1.07-1.17-1.62l-.14-.14Z"/>
      </g>
    </g>
  </g>
  <g>
    <line class="cls-1" x1="23.45" y1="23.23" x2="26.55" y2="26.33"/>
    <line class="cls-1" x1="26.55" y1="23.23" x2="23.45" y2="26.33"/>
  </g>
</svg>