<?xml version="1.0" encoding="UTF-8"?>
<svg id="_圖層_1" data-name="圖層 1" xmlns="http://www.w3.org/2000/svg" viewBox="0 0 50 50">
  <defs>
    <style>
      .cls-1 {
        stroke-width: .5px;
      }

      .cls-1, .cls-2 {
        fill: none;
        stroke: #fdf660;
        stroke-linecap: round;
        stroke-linejoin: round;
      }
    </style>
  </defs>
  <ellipse class="cls-2" cx="22.6" cy="23.17" rx="21.29" ry="3.89" transform="translate(-9.73 24.83) rotate(-48.65)"/>
  <path class="cls-2" d="M10.53,39.7l4.44,2.52c.69.34,1.34.34,1.81.35,2.1.02,6.31-1.07,15.58-11.83,6.31-7.33,7.99-11.69,8.57-13.97.27-1.07.04-2.21-.62-3.1l-2.96-4.45"/>
  <path class="cls-1" d="M34.38,14.67c-2.65,1.84-6.24,5.01-10.99,10.41-4.53,5.14-7.06,8.84-8.42,11.48"/>
  <path class="cls-2" d="M8.53,39.16l.48.42c1.61,1.42,9.22-4.58,16.99-13.41,7.77-8.83,12.76-17.13,11.14-18.56l-.48-.42"/>
</svg>