<?xml version="1.0" encoding="UTF-8"?>
<svg id="_圖層_1" data-name="圖層 1" xmlns="http://www.w3.org/2000/svg" viewBox="0 0 50 50">
  <defs>
    <style>
      .cls-1 {
        fill: #fdf660;
      }
    </style>
  </defs>
  <g id="MwqGv2">
    <g>
      <path class="cls-1" d="M14.39,17.1c2.98.3,7.23,2.19,9.27,4.41,1.51,1.65,2.05,3.93,3.49,5.62,2.53,2.98,6.92,4.53,10.79,4.25-.54-.49-4.02-3.38-1.67-3.35.42,0,4.56,3.44,4.68,3.87.23.87-3.96,4.34-4.69,4.35-2.47.03,1.46-2.96,1.68-3.35-4.34.3-9.23-1.45-12.01-4.86-1.14-1.39-1.52-2.94-2.45-4.24-2.4-3.38-6.33-4.81-10.32-5.18-.89-.08-3.84.33-4.09-.47-.16-.3.2-1.06.45-1.06,1.53,0,3.39-.15,4.86,0Z"/>
      <path class="cls-1" d="M40.59,18.83c-.5.6-4.45,3.76-5.07,3.13-.33-1.7,1.61-1.97,2.43-3.19-4.1-.21-8.25,1.39-11.1,4.41l-.74-.48c-.49-1.62,3.93-3.93,5.25-4.44,2.09-.8,4.35-1.12,6.59-1.16-.74-1.12-3.56-1.8-1.97-3.34.34-.07,4.44,3.05,4.73,3.48.38.57.32,1.07-.12,1.6Z"/>
      <path class="cls-1" d="M14.69,31.38c2.28-.26,4.95-1.61,6.81-2.91.41-.28,2.07-2.33,2.46-.88s-4.28,3.91-5.39,4.33c-.43.16-3.08.98-3.27.98h-5.77c-.57,0-.57-1.52,0-1.52,1.6,0,3.64.17,5.17,0Z"/>
    </g>
  </g>
</svg>