<?xml version="1.0" encoding="UTF-8"?>
<svg id="_圖層_1" data-name="圖層 1" xmlns="http://www.w3.org/2000/svg" viewBox="0 0 50 50">
  <defs>
    <style>
      .cls-1, .cls-2 {
        fill: none;
      }

      .cls-2 {
        stroke: #fef760;
        stroke-linecap: round;
        stroke-linejoin: round;
        stroke-width: .8px;
      }
    </style>
  </defs>
  <g>
    <path class="cls-1" d="M26.19,12.31v11.77c4.96.11,6.62,1.6,7.14,2.34-.16-.31-.35-.53-.56-.68-.57-.42-.93-1.02-.92-1.69l.21-8.3c-.01-.43,0-.84,0-1.25-.33-.96-1.62-2.13-5.88-2.19Z"/>
    <path class="cls-1" d="M26.19,24.08v1.53c5.8-.01,7.43,1.76,7.43,1.76-.06-.39-.16-.69-.29-.94-.51-.74-2.18-2.23-7.14-2.34Z"/>
    <path class="cls-1" d="M32.06,15.76s.24-.57,0-1.25c-.01.41-.01.82,0,1.25Z"/>
    <path class="cls-1" d="M26.19,25.61v2.27c4.26-.03,6.29,1.57,6.29,1.57,0,0,1.41-.11,1.14-2.07,0,0-1.63-1.77-7.43-1.76Z"/>
    <path class="cls-1" d="M26.19,44.32c2.02-.05,8.9-.25,9.71-.97l-.92-1.11-2.5-12.8s-2.03-1.6-6.29-1.57v16.44Z"/>
    <path class="cls-2" d="M20.1,14.46s-.01.03-.02.05c0,.1,0,.21,0,.32v-.36Z"/>
    <path class="cls-2" d="M21.34,13.18c-1.19.53-1.24,1.11-1.24,1.11v.18c.16-.43.51-.89,1.24-1.28Z"/>
    <path class="cls-2" d="M24.75,12.36c-1.61.12-2.69.43-3.41.81.68-.31,1.75-.6,3.41-.77v-.04Z"/>
    <path class="cls-2" d="M26.19,11.03c-.83,0-1.51.2-1.51.2l.08,1.14c.39-.03.81-.05,1.26-.05.01,0,.02,0,.03,0,.01,0,.02,0,.03,0,.01,0,.02,0,.03,0-.01,0-.02,0-.03,0,.04,0,.08,0,.12,0"/>
    <path class="cls-2" d="M26.02,12.31c-.45,0-.88.02-1.26.05v.04c.39-.04.81-.07,1.26-.1Z"/>
    <path class="cls-2" d="M26.02,12.31s.04,0,.06,0c-.01,0-.02,0-.03,0-.01,0-.02,0-.03,0Z"/>
    <path class="cls-2" d="M20.08,14.51c-.18.53-.08.99-.02,1.17l.03-.86c0-.11,0-.21,0-.32Z"/>
    <path class="cls-2" d="M26.19,5.64h0s-.08,0-.12,0c.04,0,.08,0,.12,0Z"/>
    <path class="cls-2" d="M26.19,5.64s-.08,0-.12,0c-7.86.04-6.14,3.38-5.99,8.87,0-.02.01-.03.02-.05v-.18s.06-.57,1.24-1.11c.72-.38,1.8-.69,3.41-.81l-.08-1.14s.69-.2,1.51-.2"/>
    <path class="cls-2" d="M26.19,44.32c-.35,0-.56.01-.56.01-8.87.25-10.07-.98-10.07-.98l.93-.94,2.65-13.16s-1.46-1.51-1.3-2.45c.07-.37.37-.7.72-.97.41-.31.71-.7.92-1.14l-1.72.09-1.98-.08c-.08.15-.19.29-.35.42-.08.07-.17.14-.25.21-.46.37-1.18.32-1.61-.12l-.31-.31.31.31c.43.43,1.16.49,1.61.12.08-.07.17-.14.25-.21.16-.13.27-.27.35-.42h-.03s.2-.52.2-.52c.04-.21.05-.45.06-.75,0-.11,0-.23,0-.36-.19-2.22-2.09-.68-2.09-.68,0,0,1.9-1.54,2.09.68.01.12.01.24,0,.36-.01.3-.03.55-.06.75l.28-.74,1.41.51,1.8-.31.05,1.02c.17-.36.27-.74.29-1.14l.28-7.84c-.05-.18-.16-.64.02-1.17-.15-5.49-1.87-8.83,5.99-8.87-.1,0-.19,0-.29,0,.1,0,.19,0,.29,0,.04,0,.08,0,.12,0"/>
    <path class="cls-2" d="M26.19,25.61c-.3,0-.61,0-.93.01-6.57.22-7.42,1.18-7.42,1.18-.17.93,1.3,2.45,1.3,2.45l-2.65,13.16-.93.94s1.2,1.23,10.07.98c0,0,.21,0,.56-.01"/>
    <path class="cls-2" d="M26.19,27.88s-.03,0-.04,0c-5.07,0-6.95,1.11-6.95,1.11,0,0,1.88-1.11,6.95-1.11.01,0,.03,0,.04,0"/>
    <path class="cls-2" d="M26.19,12.31s-.08,0-.12,0c-.02,0-.04,0-.06,0-.46.02-.87.06-1.26.1v.04s0-.04,0-.04c-1.66.17-2.73.46-3.41.77-.72.39-1.08.85-1.24,1.28v.36c0,.31,0,.62-.02.93,0,0-.01-.03-.03-.08l-.28,7.84c-.01.4-.12.79-.29,1.14v.03s-.01,0-.01,0c-.21.44-.52.83-.92,1.14-.35.27-.66.6-.72.97,0,0,.96-2.73,7.63-2.73.26,0,.49,0,.73.01"/>
    <path class="cls-2" d="M20.09,14.82l-.03.86s.03.08.03.08c0-.32,0-.63,0-.93Z"/>
    <path class="cls-2" d="M26.19,24.08c-.24,0-.47-.01-.73-.01-6.67,0-7.63,2.73-7.63,2.73,0,0,.86-.96,7.42-1.18.33-.01.63-.01.93-.01"/>
    <path class="cls-2" d="M19.45,23.65l-1.8.31-1.41-.51-.28.74c-.03.2-.09.37-.17.52l1.98.08,1.72-.09s0-.02.01-.03l-.05-1.02Z"/>
    <path class="cls-2" d="M15.76,24.7h.03c.08-.15.13-.31.17-.51l-.2.51Z"/>
    <path class="cls-2" d="M19.49,24.67s0,.02-.01.03h.01s0-.03,0-.03Z"/>
  </g>
  <g>
    <path class="cls-1" d="M26.11,24.08c-4.96.11-6.62,1.6-7.14,2.34.16-.31.35-.53.56-.68.57-.42.93-1.02.92-1.69l-.21-8.3c.01-.43,0-.84,0-1.25.33-.96,1.62-2.13,5.88-2.19"/>
    <path class="cls-1" d="M26.11,24.08v1.53c-5.8-.01-7.43,1.76-7.43,1.76.06-.39.16-.69.29-.94.51-.74,2.18-2.23,7.14-2.34Z"/>
    <path class="cls-1" d="M20.23,15.76s-.24-.57,0-1.25c.01.41.01.82,0,1.25Z"/>
    <path class="cls-1" d="M26.11,27.88c-4.26-.03-6.29,1.57-6.29,1.57,0,0-1.41-.11-1.14-2.07,0,0,1.63-1.77,7.43-1.76"/>
    <path class="cls-1" d="M26.11,44.32c-2.02-.05-8.9-.25-9.71-.97l.92-1.11,2.5-12.8s2.03-1.6,6.29-1.57"/>
    <path class="cls-2" d="M32.2,14.46s.01.03.02.05c0,.1,0,.21,0,.32v-.36Z"/>
    <path class="cls-2" d="M30.96,13.18c1.19.53,1.24,1.11,1.24,1.11v.18c-.16-.43-.51-.89-1.24-1.28Z"/>
    <path class="cls-2" d="M27.55,12.36c1.61.12,2.69.43,3.41.81-.68-.31-1.75-.6-3.41-.77v-.04Z"/>
    <path class="cls-2" d="M26.11,11.03c.83,0,1.51.2,1.51.2l-.08,1.14c-.39-.03-.81-.05-1.26-.05-.01,0-.02,0-.03,0-.01,0-.02,0-.03,0-.01,0-.02,0-.03,0,.01,0,.02,0,.03,0-.04,0-.08,0-.12,0"/>
    <path class="cls-2" d="M26.28,12.31c.45,0,.88.02,1.26.05v.04c-.39-.04-.81-.07-1.26-.1Z"/>
    <path class="cls-2" d="M26.28,12.31s-.04,0-.06,0c.01,0,.02,0,.03,0,.01,0,.02,0,.03,0Z"/>
    <path class="cls-2" d="M32.22,14.51c.18.53.08.99.02,1.17l-.03-.86c0-.11,0-.21,0-.32Z"/>
    <path class="cls-2" d="M26.11,5.64h0s.08,0,.12,0c-.04,0-.08,0-.12,0Z"/>
    <path class="cls-2" d="M26.11,5.64s.08,0,.12,0c7.86.04,6.14,3.38,5.99,8.87,0-.02-.01-.03-.02-.05v-.18s-.06-.57-1.24-1.11c-.72-.38-1.8-.69-3.41-.81l.08-1.14s-.69-.2-1.51-.2"/>
    <path class="cls-2" d="M26.11,25.61c.3,0,.61,0,.93.01,6.57.22,7.42,1.18,7.42,1.18.17.93-1.3,2.45-1.3,2.45l2.65,13.16.93.94s-1.2,1.23-10.07.98c0,0-.21,0-.56-.01"/>
    <path class="cls-2" d="M26.11,27.88s.03,0,.04,0c5.07,0,6.95,1.11,6.95,1.11,0,0-1.88-1.11-6.95-1.11-.01,0-.03,0-.04,0"/>
    <path class="cls-2" d="M26.11,12.31s.08,0,.12,0c.02,0,.04,0,.06,0,.46.02.87.06,1.26.1v.04s0-.04,0-.04c1.66.17,2.73.46,3.41.77.72.39,1.08.85,1.24,1.28v.36c0,.31,0,.62.02.93,0,0,.01-.03.03-.08l.28,7.84c.01.4.12.79.29,1.14v.03s.01,0,.01,0c.21.44.52.83.92,1.14.35.27.66.6.72.97,0,0-.96-2.73-7.63-2.73-.26,0-.49,0-.73.01"/>
    <path class="cls-2" d="M32.21,14.82l.03.86s-.03.08-.03.08c0-.32,0-.63,0-.93Z"/>
    <path class="cls-2" d="M26.11,24.08c.24,0,.47-.01.73-.01,6.67,0,7.63,2.73,7.63,2.73,0,0-.86-.96-7.42-1.18-.33-.01-.63-.01-.93-.01"/>
    <path class="cls-2" d="M32.8,24.67s0,.02.01.03h-.01s0-.03,0-.03Z"/>
  </g>
  <path class="cls-2" d="M20.13,16.63s2.79-1.47,6-1.47"/>
  <path class="cls-2" d="M32.23,16.63s-2.79-1.47-6-1.47"/>
</svg>