<svg id="圖層_1" data-name="圖層 1" xmlns="http://www.w3.org/2000/svg" viewBox="0 0 50 50"><defs><style>.cls-1,.cls-2{fill:none;stroke:#fef760;stroke-linecap:round;stroke-linejoin:round;}.cls-2{stroke-width:0.25px;}</style></defs><title>icon</title><polygon class="cls-1" points="5.36 11.92 15.51 24.31 46.89 21.32 29.34 11.37 5.36 11.92"/><polyline class="cls-1" points="35.09 24.48 46.46 23.37 46.89 21.32 15.51 24.31 5.36 11.92 5.36 14.45 15.14 26.43 32.2 24.76"/><polyline class="cls-1" points="32.2 24.76 15.14 26.43 5.98 15.21 5.36 25.11 13.57 41.8 41.42 36.26 45.38 23.54 34.25 24.58"/><path class="cls-2" d="M32.16,30.81s.25-1.41-.74-1.41l.39-3.8s.81-.53.83-.84S32,23.62,32,23.62v-.89l3.36-.32v1S34,24.58,33.9,24.61s.08.5.49.83l-.16,3.63s-.83.25-.83,1.74Z"/><path class="cls-2" d="M33.21,26s.34,0,.21,1.28-.16,2.27-.56,2.25-.23-.78-.19-1.78S32.85,25.85,33.21,26Z"/><line class="cls-1" x1="15.14" y1="26.43" x2="13.57" y2="41.8"/></svg>