<svg id="圖層_1" data-name="圖層 1" xmlns="http://www.w3.org/2000/svg" viewBox="0 0 50 50"><defs><style>.cls-1,.cls-2{fill:none;stroke:#fef760;stroke-linecap:round;stroke-linejoin:round;}.cls-2{stroke-width:0.25px;}</style></defs><title>icon</title><path class="cls-1" d="M12.55,17.79C10.28,18.65,8,20.29,7.79,22c-.69,6.33,12.07,7.71,16.7,7.71s18.05-1.39,17.74-7.17c-.21-3.93-6.44-5.42-11.87-6"/><path class="cls-1" d="M8.23,24.42l.63,10.69a8.45,8.45,0,0,0,3.45,6c2.77,1.77,7.42,3,14.56,2.94,6.52,0,9.18-1.58,11.24-2.85a6.21,6.21,0,0,0,3.09-4.1L42,24"/><polyline class="cls-1" points="33.92 28.66 27 6 10.37 6.49 14.84 28.47"/><path class="cls-2" d="M19.62,8.23s-3.66.25-3.7-.53c0-.55,1.68-.71,2.71-.75l1.44-.08c1-.06,2.68-.09,2.72.52C22.83,8.25,19.62,8.23,19.62,8.23Z"/><path class="cls-2" d="M10.76,8.46a19.27,19.27,0,0,0,9.14,1.87c5.1-.27,7.59-2.5,7.59-2.5"/><path class="cls-2" d="M11.36,9.94a19.18,19.18,0,0,0,9.13,1.86c5.1-.27,7.6-2.49,7.6-2.49"/><path class="cls-2" d="M11.39,11.22a20,20,0,0,0,9.34,1.85c5.22-.27,7.78-2.5,7.78-2.5"/><path class="cls-2" d="M11.76,12.69a20,20,0,0,0,9.34,1.86c5.22-.28,7.78-2.51,7.78-2.51"/><path class="cls-2" d="M11.88,14.21a19.46,19.46,0,0,0,9.21,1.86,15.3,15.3,0,0,0,8.18-2.67"/><path class="cls-2" d="M12.1,15.89a20.65,20.65,0,0,0,9.49,1.85c5.31-.29,7.91-2.52,7.91-2.52"/><path class="cls-2" d="M12.55,17.19A20.86,20.86,0,0,0,22.1,19c5.33-.29,8-2.52,8-2.52"/><path class="cls-2" d="M12.94,18.31a24.32,24.32,0,0,0,9.77,1.6c5.34-.28,8-2.51,8-2.51"/><path class="cls-2" d="M13.16,19.18A20.91,20.91,0,0,0,22.71,21c5.34-.29,8-2.52,8-2.52"/><path class="cls-2" d="M13.2,20.46A21.6,21.6,0,0,0,23,22.29c5.46-.29,8.14-2.52,8.14-2.52"/><path class="cls-2" d="M13.51,21.93A23.85,23.85,0,0,0,23.6,23.77c5.46-.29,8.14-2.53,8.14-2.53"/><path class="cls-2" d="M13.87,23.44a22.62,22.62,0,0,0,10,1.82c5.59-.29,8.33-2.53,8.33-2.53"/><path class="cls-2" d="M14.1,25.12a24,24,0,0,0,10.3,1.81,17.42,17.42,0,0,0,8.07-2.2"/><path class="cls-2" d="M14.5,26.94a25.14,25.14,0,0,0,10.61,1.79,19,19,0,0,0,8-2"/><path class="cls-2" d="M16,7.83s.4-.57,3.72-.69c1.66-.07,2.29-.14,3.07.25"/></svg>