<svg id="圖層_1" data-name="圖層 1" xmlns="http://www.w3.org/2000/svg" viewBox="0 0 50 50"><defs><style>.cls-1,.cls-2{fill:none;stroke:#fef760;stroke-linecap:round;stroke-linejoin:round;}.cls-2{stroke-width:0.25px;}</style></defs><title>icon</title><ellipse class="cls-1" cx="41.52" cy="26.03" rx="12.5" ry="3.21" transform="translate(12.95 65.85) rotate(-86.42)"/><path class="cls-1" d="M7.7,36.44c-1.77-.11-2.85-5.79-2.42-12.67s2.21-12.38,4-12.27"/><line class="cls-1" x1="9.26" y1="11.5" x2="42.3" y2="13.56"/><line class="cls-1" x1="7.7" y1="36.44" x2="40.74" y2="38.5"/><path class="cls-2" d="M35.52,25.66c.43-6.89,2.21-12.38,4-12.27"/><path class="cls-2" d="M37.94,38.33c-1.77-.11-2.85-5.78-2.42-12.67"/><path class="cls-2" d="M33.93,25.56c.43-6.89,2.22-12.38,4-12.27"/><path class="cls-2" d="M36.35,38.23c-1.76-.11-2.85-5.78-2.42-12.67"/><path class="cls-2" d="M32.35,25.46c.43-6.89,2.21-12.38,4-12.27"/><path class="cls-2" d="M34.77,38.13C33,38,31.92,32.35,32.35,25.46"/><path class="cls-2" d="M10.08,36.59c-1.77-.11-2.85-5.79-2.42-12.67s2.21-12.39,4-12.28"/><path class="cls-2" d="M11.66,36.69C9.9,36.57,8.81,30.9,9.24,24s2.22-12.38,4-12.27"/><path class="cls-2" d="M13.25,36.78c-1.77-.11-2.85-5.78-2.42-12.67s2.21-12.38,4-12.27"/><path class="cls-2" d="M32.65,34.48s-2.82-1.71-2.23.25a7.61,7.61,0,0,0,.84,1.86c.5.78,1.36.21,1.88-.55"/></svg>