<svg id="圖層_1" data-name="圖層 1" xmlns="http://www.w3.org/2000/svg" viewBox="0 0 50 50"><defs><style>.cls-1,.cls-2{fill:none;stroke:#fef760;stroke-linecap:round;stroke-linejoin:round;}.cls-2{stroke-width:0.25px;}</style></defs><title>icon</title><path class="cls-1" d="M25.53,9.62l-.28-5.07a1,1,0,0,1,1-1h0a1,1,0,0,1,1,1L27,9.62"/><path class="cls-1" d="M29.93,29.84a13.63,13.63,0,0,0,2.82-2.15s2.15-16.39-5.33-18a6.16,6.16,0,0,0-1.32-.13,6.06,6.06,0,0,0-1.31.13c-5.08,1.09-5.49,7.72-5.24,12.37"/><path class="cls-2" d="M29.93,15a4,4,0,0,0-2.79-2.84,4,4,0,0,0-.8-.08,3.94,3.94,0,0,0-.8.08,3.73,3.73,0,0,0-2.75,2.72"/><path class="cls-1" d="M26.63,29.65,26.37,25a1,1,0,0,1,.94-1h0a1,1,0,0,1,.94,1L28,29.65"/><path class="cls-1" d="M25.81,45.61c-2-4.68-5.64-14.76.84-15.86a8.78,8.78,0,0,1,2.37,0s-5.5,2.69-2.24,16.15C26.92,46.43,26.06,46.18,25.81,45.61Z"/><path class="cls-1" d="M26.61,46.18c-.13-.12,5.73,2.62,6.24-6.48,0,0,1.27-10-3.83-10"/><path class="cls-2" d="M28,34.07c1.13-.44,2.95-.19,3,2.78"/><path class="cls-1" d="M23.6,39.68c-2.3-.13-6.55-1-6.55-5.6,0-6.53-1.1-11.94,4.55-11.32a4.68,4.68,0,0,1,4.92,4.89"/><path class="cls-1" d="M21.35,22.71l-.23-4.21a.85.85,0,0,1,.84-.86h0a.86.86,0,0,1,.84.86l-.24,4.21"/></svg>