<svg id="圖層_1" data-name="圖層 1" xmlns="http://www.w3.org/2000/svg" viewBox="0 0 50 50"><defs><style>.cls-1,.cls-2{fill:none;stroke:#fef760;stroke-linecap:round;stroke-linejoin:round;}.cls-1{stroke-width:0.25px;}</style></defs><title>icon</title><path class="cls-1" d="M37.45,12.41c0,.5-2.57,2.45-9,2.9"/><line class="cls-2" x1="13.03" y1="14.5" x2="13.03" y2="40.53"/><line class="cls-2" x1="37.45" y1="14.5" x2="37.45" y2="40.53"/><path class="cls-2" d="M25.24,18.43c-6.75,0-12.21-1.79-12.21-4"/><path class="cls-2" d="M37.45,14.43c0,2.21-5.47,4-12.21,4"/><path class="cls-1" d="M37.45,14.5V12.41a.71.71,0,0,0-.6-.71"/><ellipse class="cls-2" cx="24.5" cy="9.24" rx="12.14" ry="3.09" transform="translate(-1.28 4.67) rotate(-10.61)"/><path class="cls-2" d="M37.16,10.2c.38,1.66-4.66,4-11.25,5.28s-12.23.91-12.61-.75"/><line class="cls-2" x1="13.32" y1="14.47" x2="12.57" y2="11.51"/><line class="cls-2" x1="37.18" y1="9.94" x2="36.43" y2="6.98"/><ellipse class="cls-1" cx="24.51" cy="9.31" rx="3.3" ry="0.93" transform="translate(-1.29 4.66) rotate(-10.57)"/><path class="cls-2" d="M25.24,44.53c-6.75,0-12.21-1.79-12.21-4"/><path class="cls-2" d="M37.45,40.53c0,2.21-5.47,4-12.21,4"/></svg>