<svg id="圖層_1" data-name="圖層 1" xmlns="http://www.w3.org/2000/svg" viewBox="0 0 50 50"><defs><style>.cls-1,.cls-2{fill:none;stroke:#fef760;stroke-linecap:round;stroke-linejoin:round;}.cls-2{stroke-width:0.25px;}</style></defs><title>icon</title><polygon class="cls-1" points="10.21 7.93 17.45 10.15 39.79 9.29 27.43 7.93 10.21 7.93"/><polyline class="cls-1" points="10.21 7.93 10.21 31.65 17.46 42.07 37.94 37.33 39.79 9.29"/><line class="cls-1" x1="17.45" y1="10.15" x2="17.45" y2="41.73"/><line class="cls-1" x1="27.43" y1="7.93" x2="27.43" y2="9.77"/><path class="cls-2" d="M25.65,9.54v18a1.3,1.3,0,0,0,.62,1,2.6,2.6,0,0,0,1.2.46c2.42.33,2.58,3.85-.36,4-2.5.12-3.72-2.33-3-3.53a6.35,6.35,0,0,0,.63-1.85V9.54"/><path class="cls-2" d="M24.7,9.84s.66-.8.3-.8h.6l0,.8"/></svg>