<svg id="圖層_1" data-name="圖層 1" xmlns="http://www.w3.org/2000/svg" viewBox="0 0 50 50"><defs><style>.cls-1,.cls-2{fill:none;stroke:#fef760;stroke-linecap:round;stroke-linejoin:round;}.cls-2{stroke-width:0.25px;}</style></defs><title>icon</title><path class="cls-1" d="M34.79,8.51A11.19,11.19,0,0,0,25.36,7a18.42,18.42,0,0,0-12.6,10.91c-5,11.85-4.64,22.14,3.63,25s15.93-4.44,18.36-8.47C36.86,30.82,43.77,15.09,34.79,8.51Z"/><path class="cls-2" d="M21.19,10.52s3.75,4.33,15,2.11"/><path class="cls-2" d="M18.38,12.63s3.05,5.07,18.29,3.3"/><path class="cls-2" d="M16.27,15.93s2.11,4.73,20.4,2.64"/><path class="cls-2" d="M15.3,19.22s.5,4.64,20.19,2.13"/><path class="cls-2" d="M13.77,22.1s-1,5.26,21.72,2.57"/><path class="cls-2" d="M12.6,25.94s-.35,4.42,22.27,2.43"/><path class="cls-2" d="M12,30.05s-.41,4.56,21.76,1.8"/><path class="cls-2" d="M11.58,33.72s1.17,4.86,20.74,1"/><path class="cls-2" d="M13.62,38.28s4.32,3.76,15.15,0"/><path class="cls-2" d="M27.52,8.77a2.57,2.57,0,0,1,1.25,2.49"/><path class="cls-2" d="M31.6,8.77a2.57,2.57,0,0,1,1.25,2.49"/><path class="cls-2" d="M18.53,43.46A2.57,2.57,0,0,0,19.78,41"/><path class="cls-2" d="M22.61,43.46A2.57,2.57,0,0,0,23.86,41"/><path class="cls-2" d="M15.3,25.94s-2.52,14.63,3.23,15.73"/><path class="cls-2" d="M16,22.78s3.44-12.12,11.3-12.26"/></svg>