<svg id="圖層_1" data-name="圖層 1" xmlns="http://www.w3.org/2000/svg" viewBox="0 0 50 50"><defs><style>.cls-1,.cls-2{fill:none;stroke:#fef760;stroke-linejoin:round;}.cls-2{stroke-width:0.25px;}</style></defs><title>icon</title><path class="cls-1" d="M10.24,37s-6.3,2,3.09-11.82S31.23,7.61,31.23,7.61s7.16-4.11,3.7,3.79S19.62,35.48,10.24,37Z"/><path class="cls-1" d="M35.88,7.61s5.17,13.63,6,15c0,0,2.26,3-3.92,12.33-5.14,7.77-9.29,10-11.52,9.52A90.42,90.42,0,0,1,14.76,38.2"/><path class="cls-2" d="M37,10.52S32.18,26.89,18.19,35.8"/><path class="cls-2" d="M37.93,13A38.56,38.56,0,0,1,17.36,39.3"/><path class="cls-2" d="M34.93,11.4S30.58,9.54,19.35,23.7a30.24,30.24,0,0,0-5.47,12.05"/><path class="cls-2" d="M35.67,8.88S28,8.44,18.47,21.15s-7.24,15.26-7.24,15.26"/><path class="cls-1" d="M26,10.52s-.52-.65,1.65-2.35,2.92-.23,2.91-.22"/><path class="cls-1" d="M27.65,8.17s2.22-2.41,3.58-.56"/><path class="cls-1" d="M27.65,9.78a3.86,3.86,0,0,1,2.22-2.37"/><path class="cls-1" d="M17.67,38.29S16.49,36.15,9.27,40l-.59-2.29s4.12-2.42,7.22-2.42,3.1,1.8,3.1,1.8Z"/><line class="cls-1" x1="9.27" y1="39.98" x2="16.27" y2="37.71"/></svg>