<svg id="圖層_1" data-name="圖層 1" xmlns="http://www.w3.org/2000/svg" viewBox="0 0 50 50"><defs><style>.cls-1,.cls-2,.cls-3,.cls-4{fill:none;stroke:#fef760;stroke-linejoin:round;}.cls-1,.cls-3{stroke-linecap:round;}.cls-2,.cls-3{stroke-width:0.25px;}</style></defs><title>icon</title><path class="cls-1" d="M14,39.43c0,1.74,5.22,3.07,11.6,3S37.07,40.77,37,39"/><line class="cls-1" x1="36.61" y1="14.4" x2="37.04" y2="39.02"/><line class="cls-1" x1="13.53" y1="14.81" x2="13.96" y2="39.43"/><path class="cls-2" d="M25.18,20.65c6.37-.11,11.51-1.61,11.48-3.36"/><path class="cls-2" d="M13.58,17.69c0,1.87,5.22,3.07,11.6,3"/><path class="cls-2" d="M25.2,21.75c6.37-.11,11.51-1.61,11.48-3.36"/><path class="cls-2" d="M13.6,18.79c0,1.87,5.22,3.08,11.6,3"/><path class="cls-2" d="M25.5,39.22C31.88,39.11,37,37.61,37,35.86"/><path class="cls-2" d="M13.91,36.26c0,1.88,5.22,3.08,11.59,3"/><path class="cls-2" d="M25.52,40.33C31.9,40.21,37,38.71,37,37"/><path class="cls-2" d="M13.93,37.36c0,1.88,5.22,3.08,11.59,3"/><path class="cls-3" d="M36.14,14.22s3.53-2.59,3.6-1.27S40,14.83,36.49,16"/><path class="cls-3" d="M13.88,14.24s-3.61-2.46-3.63-1.15-.15,1.9,3.35,3"/><path class="cls-4" d="M27.07,12.2c5.28.15,9.52,1.15,9.55,2.44,0,1.46-5.12,2.74-11.5,2.85s-11.56-1.22-11.59-2.68c0-.81,1.56-1.72,4-1.86"/><ellipse class="cls-3" cx="22.32" cy="9.99" rx="4.7" ry="1.28" transform="translate(-0.17 0.39) rotate(-1)"/><path class="cls-3" d="M17.7,14.31c0,.8,2.13,1.41,4.72,1.37s4.69-.74,4.68-1.54"/><line class="cls-3" x1="27.03" y1="9.91" x2="27.1" y2="14.14"/><line class="cls-3" x1="17.7" y1="14.31" x2="17.62" y2="10.07"/><path class="cls-3" d="M24.71,10a2.39,2.39,0,0,0-4.77.08"/></svg>