<svg id="圖層_1" data-name="圖層 1" xmlns="http://www.w3.org/2000/svg" viewBox="0 0 50 50"><defs><style>.cls-1{fill:none;stroke:#fef760;stroke-linecap:round;stroke-linejoin:round;}</style></defs><title>icon</title><rect class="cls-1" x="15.29" y="19.58" width="19.39" height="2.6"/><path class="cls-1" d="M15.29,19.58s3.16-2.36,10-2.36,9.42,2.36,9.42,2.36"/><polyline class="cls-1" points="23.87 17.22 23.87 15.79 26.29 15.79 26.29 17.22"/><path class="cls-1" d="M15.29,22.18s-6.62,7.34.8,17.26H33.81s7.53-8.93.87-17.26"/><path class="cls-1" d="M16.11,39.44v1.07a45.82,45.82,0,0,0,17.7,0V39.44"/><path class="cls-1" d="M17.72,18.4s0-5.13,4.13-7.94c4.72-3.26,9.91-2.22,11.76,3.22a28,28,0,0,1,1.12,8.42"/><path class="cls-1" d="M16.36,19.48A9.71,9.71,0,0,1,20.49,12c4.72-3.08,11.27-2.52,13.12,2.62a22.18,22.18,0,0,1,1.12,7.51"/></svg>