<svg id="Layer_2" data-name="Layer 2" xmlns="http://www.w3.org/2000/svg" viewBox="0 0 50 50"><defs><style>.cls-1,.cls-2{fill:none;stroke:#fef760;stroke-miterlimit:10;}.cls-2{stroke-linecap:round;}</style></defs><ellipse class="cls-1" cx="29.08" cy="18.67" rx="1.56" ry="0.55"/><polyline class="cls-1" points="27.52 18.67 28.06 20.81 29.93 20.81 30.64 18.67"/><path class="cls-1" d="M30.24,20s5.36.6,6.65,1.84S36,25,29.08,25s-9.1-2-7.82-3.2S27.52,20,27.52,20"/><path class="cls-2" d="M37.24,23.14s.64,2.63-8.16,2.93c-8.81-.3-8.16-2.93-8.16-2.93"/><path class="cls-2" d="M37.05,24.6s2.9.62,3.23,4.86,1.67,14-11.2,14-11.54-9.79-11.21-14,3.24-4.86,3.24-4.86"/><ellipse class="cls-2" cx="10.95" cy="24.55" rx="1.49" ry="0.47"/><path class="cls-2" d="M12.43,24.55a14.39,14.39,0,0,1,2.29,2.85c.74,1.39,1,2.37,3.08,3"/><path class="cls-2" d="M18.13,36.9a12,12,0,0,0-1.33-.22,3.77,3.77,0,0,1-4-2.63c-.88-2.78-.53-6-1.38-7.09s-1.93-2.41-1.93-2.41"/><path class="cls-2" d="M19.82,25.27s-.29-2.58-.44-3.42a24.37,24.37,0,0,1,0-7c.55-2.82,3.22-6.62,9.7-6.66"/><path class="cls-2" d="M38.34,25.27a33.28,33.28,0,0,1,.44-3.42,22.92,22.92,0,0,0,0-7c-.55-2.82-3.23-6.62-9.7-6.66"/><path class="cls-2" d="M18.81,26.39l-.68-4.3S16.6,16,18.81,12.2s4.64-5.69,10.27-5.69"/><path class="cls-2" d="M39.35,26.39l.68-4.3s1.52-6.14-.68-9.89S34.71,6.51,29.08,6.51"/></svg>