<svg id="Layer_2" data-name="Layer 2" xmlns="http://www.w3.org/2000/svg" viewBox="0 0 50 50"><defs><style>.cls-1,.cls-3,.cls-4{fill:none;stroke:#fef760;}.cls-1,.cls-3{stroke-linejoin:bevel;}.cls-2{fill:#fef760;}.cls-3,.cls-4{stroke-linecap:round;}.cls-4{stroke-miterlimit:10;}</style></defs><path class="cls-1" d="M39.59,25.34H10.5a2.9,2.9,0,0,1-2.88-3.7l.9-2.85a3,3,0,0,1,2.89-2l26.84.16a3,3,0,0,1,2.68,1.62l1.37,2.69A2.88,2.88,0,0,1,39.59,25.34Z"/><path class="cls-1" d="M10.5,24a1.64,1.64,0,0,1-1.34-.65A1.34,1.34,0,0,1,9,22.06l.89-2.85a1.62,1.62,0,0,1,1.56-1.07l26.84.16a1.65,1.65,0,0,1,1.46.86l1.36,2.69A1.36,1.36,0,0,1,41,23.2a1.63,1.63,0,0,1-1.41.75Z"/><rect class="cls-2" x="8.46" y="18.53" width="1.92" height="2.55" rx="0.94" transform="translate(7.64 -2.05) rotate(20.79)"/><rect class="cls-2" x="39.57" y="18.53" width="1.92" height="2.55" rx="0.94" transform="translate(85.46 23.93) rotate(159.21)"/><path class="cls-3" d="M42.6,22.52v3.25c0,1.14-2,2.07-4.4,2.07H11.89c-2.43,0-4.4-.93-4.4-2.07V22.43"/><path class="cls-3" d="M8.74,20.59s-1.66.17-1.85.54-.37,2,.6,2.45"/><path class="cls-3" d="M8.8,18.74s-1.21-.11-1.54.31a6,6,0,0,0-.37,2.08"/><path class="cls-3" d="M41.26,20.59s1.66.17,1.85.54.37,2-.6,2.45"/><path class="cls-3" d="M41.2,18.74s1.21-.11,1.54.31a6,6,0,0,1,.37,2.08"/><path class="cls-4" d="M42.51,26.31v4.8a2.49,2.49,0,0,1-2.73,2.14H10.31a2.49,2.49,0,0,1-2.72-2.14v-4.8"/></svg>