<svg id="Layer_2" data-name="Layer 2" xmlns="http://www.w3.org/2000/svg" viewBox="0 0 50 50"><defs><style>.cls-1,.cls-2{fill:none;stroke:#fef760;stroke-miterlimit:10;}.cls-2{stroke-linecap:round;}</style></defs><path class="cls-1" d="M23.8,15.52c-1.85.13-6.33.79-9.14,4,0,0-.47.63.52.94A62.54,62.54,0,0,0,25,21.72a44.44,44.44,0,0,0,9.82-1.26c1-.31.52-.94.52-.94-2.53-2.89-6.77-3.71-9.09-3.95"/><path class="cls-2" d="M35.13,20.62a.57.57,0,0,1-.15.47,4,4,0,0,1-.68.47v.63s5,2.35,3.29,8.77-4.13,8.2-4.13,8.2a2.36,2.36,0,0,1-1.62,2.66A15.8,15.8,0,0,1,25,43.55c-3,.05-4.8-.89-6.84-1.73a2.36,2.36,0,0,1-1.62-2.66s-2.4-1.78-4.13-8.2,3.29-8.77,3.29-8.77v-.63a4,4,0,0,1-.68-.47.57.57,0,0,1-.15-.47"/><path class="cls-1" d="M25,15.93c.68,0,1.25-.06,1.25-.06v-.53c.37-.15.37-.94.37-.94s-.42-.21-.73-.41a2,2,0,0,0-1.78,0c-.31.2-.73.41-.73.41s.05.79.42.94v.53a11.63,11.63,0,0,0,1.2.06"/><path class="cls-1" d="M38.32,20.93a.92.92,0,0,1-1.15.89c-1.1-.21-1.25-1.35-.81-2.79S32.78,6.45,25,6.45,13.2,17.59,13.64,19s.29,2.58-.81,2.79a.92.92,0,0,1-1.15-.89"/><path class="cls-1" d="M12.88,25s-1.09-3.48-.41-4.16,1.89,2.3,1.89,2.3"/><path class="cls-1" d="M37.17,25s1.1-3.48.42-4.16-1.9,2.3-1.9,2.3"/><path class="cls-1" d="M13.72,17.8S16.23,7.7,25,7.93"/><path class="cls-1" d="M36.39,18.63S33.77,7.7,25,7.93"/></svg>