<svg id="Layer_2" data-name="Layer 2" xmlns="http://www.w3.org/2000/svg" viewBox="0 0 50 50"><defs><style>.cls-1{fill:none;stroke:#fef760;stroke-miterlimit:10;}</style></defs><ellipse class="cls-1" cx="25.02" cy="8.88" rx="1.62" ry="0.49"/><path class="cls-1" d="M23.4,8.88s-.37.81.32,1.13v1.44H25"/><path class="cls-1" d="M26.63,8.88s.37.81-.32,1.13v1.44H25"/><path class="cls-1" d="M26.63,10.78s6.2.34,7.17,1.73c.74,1.05.71,4.41.65,6a1,1,0,0,1-.85,1,64,64,0,0,1-8.58.78,64,64,0,0,1-8.59-.78,1,1,0,0,1-.84-1c-.06-1.57-.1-4.93.64-6,1-1.39,7.17-1.73,7.17-1.73"/><path class="cls-1" d="M34.45,18s1,.73.79,1.15S34.87,21.05,25,21.11s-10-1.57-10.23-1.94.79-1.15.79-1.15"/><line class="cls-1" x1="15.03" y1="29.69" x2="15.03" y2="19.59"/><path class="cls-1" d="M35.05,32v6.79a2.08,2.08,0,0,1-1.74,2,45.68,45.68,0,0,1-8.27.85,45.68,45.68,0,0,1-8.27-.85,2.08,2.08,0,0,1-1.74-2v-6.6"/><line class="cls-1" x1="35.05" y1="19.59" x2="35.05" y2="28.96"/><path class="cls-1" d="M35,21.39s1.6-.62,1.8,0S37.05,39.6,25,39.6,13,22,13.18,21.39s1.8,0,1.8,0"/><path class="cls-1" d="M34.89,22.12H36S36,38.74,24.94,38.74,13.85,22.12,13.85,22.12H15"/></svg>