<svg id="Layer_2" data-name="Layer 2" xmlns="http://www.w3.org/2000/svg" viewBox="0 0 50 50"><defs><style>.cls-1,.cls-2{fill:none;stroke:#fef760;}.cls-1{stroke-miterlimit:10;}.cls-2{stroke-linecap:round;stroke-linejoin:bevel;}</style></defs><ellipse class="cls-1" cx="22.44" cy="16.73" rx="12.98" ry="4.06"/><path class="cls-1" d="M9.8,17.66l2.26,13.87A5.05,5.05,0,0,0,14.4,35,14.79,14.79,0,0,0,22,37.32a14.75,14.75,0,0,0,8-2.61,5.07,5.07,0,0,0,2.15-3.17l2.94-13.88"/><path class="cls-2" d="M35.41,16.73a4.66,4.66,0,0,1,5.13,1.13s-2-4-5.47-2.46"/><path class="cls-1" d="M33.31,26s5.3-3.63,6.08-4.68a10.07,10.07,0,0,0,1.09-3.65"/><path class="cls-1" d="M39.19,16.73s.48,4.42-5.31,6.57"/></svg>