<svg id="Layer_2" data-name="Layer 2" xmlns="http://www.w3.org/2000/svg" viewBox="0 0 50 50"><defs><style>.cls-1,.cls-2{fill:none;stroke:#fef760;stroke-miterlimit:10;}.cls-2{stroke-width:0.75px;}.cls-3{fill:#fef760;}</style></defs><line class="cls-1" x1="37.81" y1="8.1" x2="38.44" y2="8.77"/><path class="cls-1" d="M12.88,7.42a.83.83,0,0,1,.58-.24H36.54a.82.82,0,0,1,.58.23"/><path class="cls-1" d="M39.17,9.52l1,1.06a.68.68,0,0,1-.58,1.13H10.4a.68.68,0,0,1-.58-1.12l1-1.06"/><path class="cls-1" d="M40.21,11.53V41.24A1.78,1.78,0,0,1,38.45,43H11.59a1.78,1.78,0,0,1-1.77-1.79V11.53"/><line class="cls-1" x1="9.64" y1="14.07" x2="40.4" y2="14.07"/><line class="cls-1" x1="9.64" y1="15.32" x2="40.4" y2="15.32"/><ellipse class="cls-2" cx="25.04" cy="9.49" rx="8.02" ry="1.2"/><path class="cls-2" d="M17.61,9.94A27.87,27.87,0,0,1,25,9.21a27.87,27.87,0,0,1,7.39.73"/><path class="cls-2" d="M35.54,9.17l-.69-.7,3-1.29A2.74,2.74,0,0,1,38.87,7a7.18,7.18,0,0,1,1.74,1A1.31,1.31,0,0,1,40,9.21c-.52.19-3.12,1.34-3.3,1.16s-.51-.6-.51-.6l.64-.28,2.51-1.11-.84-.6Z"/><polygon class="cls-3" points="34.01 8.79 35.54 10.69 36.42 10.17 35.22 8.52 34.01 8.79"/><path class="cls-2" d="M14.46,9.17l.69-.7-3-1.29A2.74,2.74,0,0,0,11.13,7,7.18,7.18,0,0,0,9.39,8a1.31,1.31,0,0,0,.66,1.21c.52.19,3.12,1.34,3.3,1.16s.51-.6.51-.6l-.64-.28L10.71,8.38l.84-.6Z"/><polygon class="cls-3" points="15.99 8.79 14.46 10.69 13.58 10.17 14.78 8.52 15.99 8.79"/></svg>