<svg id="Layer_2" data-name="Layer 2" xmlns="http://www.w3.org/2000/svg" viewBox="0 0 50 50"><defs><style>.cls-1{fill:none;stroke:#fef760;stroke-miterlimit:10;}</style></defs><ellipse class="cls-1" cx="25" cy="11.93" rx="1.94" ry="0.72"/><rect class="cls-1" x="23.78" y="12.65" width="2.45" height="1.76"/><path class="cls-1" d="M26.47,12.42c7.83.23,14.12,2.14,14.12,4.46,0,2.47-7,4.47-15.52,4.47s-15.52-2-15.52-4.47c0-2.32,6.08-4.22,13.89-4.46"/><path class="cls-1" d="M40.59,16.88v2.36s-4,4.22-15.59,4.22S9.55,19.24,9.55,19.24V16.88"/><line class="cls-1" x1="10.08" y1="22.64" x2="10.08" y2="19.69"/><path class="cls-1" d="M40.06,24.05v.67A14.05,14.05,0,0,1,26.25,38.78H23.93A14.08,14.08,0,0,1,10.08,24.72v-.49"/><line class="cls-1" x1="40.06" y1="19.69" x2="40.06" y2="22.54"/><path class="cls-1" d="M9.92,20.13s-1.33-.07-1.38.39.69,1,.69,1l-.88,1s-1.91-1.43-.95-2.82a1.79,1.79,0,0,1,2.15-.88"/><path class="cls-1" d="M9,21.83s1.09.82,1.27.91,1.48.88,1.48,1.81-1.26.15-1.64-.32a5.33,5.33,0,0,0-1.55-1.72"/><path class="cls-1" d="M40.08,20.13s1.33-.07,1.38.39-.69,1-.69,1l.88,1s1.91-1.43,1-2.82-2-.88-2-.88"/><path class="cls-1" d="M41,21.83s-1.09.82-1.27.91-1.48.88-1.48,1.81,1.26.15,1.64-.32a5.33,5.33,0,0,1,1.55-1.72"/></svg>