<svg id="Layer_2" data-name="Layer 2" xmlns="http://www.w3.org/2000/svg" viewBox="0 0 50 50"><defs><style>.cls-1,.cls-2,.cls-3{fill:none;stroke:#fef760;stroke-miterlimit:10;}.cls-2{stroke-width:0.75px;}.cls-3{stroke-linecap:round;}</style></defs><ellipse class="cls-1" cx="25" cy="17.09" rx="17.48" ry="4.24"/><ellipse class="cls-1" cx="25" cy="17.09" rx="17.48" ry="4.24"/><path class="cls-2" d="M25,20.2A53.92,53.92,0,0,1,12.9,19a14.22,14.22,0,0,1-3.45-1.23h0a.77.77,0,0,1,0-1.32h0a14.22,14.22,0,0,1,3.45-1.23A53.92,53.92,0,0,1,25,14a53.92,53.92,0,0,1,12.1,1.21,14.22,14.22,0,0,1,3.45,1.23h0a.77.77,0,0,1,0,1.32h0A14.22,14.22,0,0,1,37.1,19,53.92,53.92,0,0,1,25,20.2Z"/><path class="cls-3" d="M41.79,18.32V31.81a3.76,3.76,0,0,1-3,3.67A66.15,66.15,0,0,1,25,37.15a66.35,66.35,0,0,1-13.86-1.67,3.76,3.76,0,0,1-3-3.67V18.32"/></svg>