<svg id="Layer_2" data-name="Layer 2" xmlns="http://www.w3.org/2000/svg" viewBox="0 0 50 50"><defs><style>.cls-1,.cls-2{fill:none;stroke:#fef760;stroke-miterlimit:10;}.cls-1{stroke-linecap:round;}</style></defs><ellipse class="cls-1" cx="25.02" cy="10.75" rx="9.04" ry="3.01"/><path class="cls-1" d="M25,12.26a21.68,21.68,0,0,1-5.64-.68,9,9,0,0,1-1.77-.67.21.21,0,0,1,0-.31,8.38,8.38,0,0,1,1.77-.67A21.68,21.68,0,0,1,25,9.25a21.65,21.65,0,0,1,5.63.68,8.17,8.17,0,0,1,1.77.67.21.21,0,0,1,0,.31,8.73,8.73,0,0,1-1.77.67A21.65,21.65,0,0,1,25,12.26Z"/><path class="cls-1" d="M16.11,11.26A1.9,1.9,0,0,1,16,13.85c-1.25,1.21-2,2.5-2,10.41l.37,14.41a1.5,1.5,0,0,0,.94,1.4,26.68,26.68,0,0,0,10,2.18,22.84,22.84,0,0,0,9.47-2.16,1.51,1.51,0,0,0,.89-1.38L36,24.26c0-7.91-.77-9.2-2-10.41a1.88,1.88,0,0,1-.06-2.59"/><path class="cls-2" d="M19,11.49a24.48,24.48,0,0,1,6-.92,30.86,30.86,0,0,1,6.34.88"/></svg>