<svg id="Layer_2" data-name="Layer 2" xmlns="http://www.w3.org/2000/svg" viewBox="0 0 50 50"><defs><style>.cls-1,.cls-2,.cls-3{fill:none;stroke:#fef760;stroke-miterlimit:10;}.cls-1{stroke-width:1.03px;}.cls-2,.cls-3{stroke-width:0.5px;}.cls-3{stroke-linecap:round;}</style></defs><path class="cls-1" d="M4.89,27A1.16,1.16,0,0,1,4,25l3.82-4.3a1.16,1.16,0,0,1,.87-.39H37a1.13,1.13,0,0,1,.82.34L42.16,25a1.17,1.17,0,0,1,.25,1.27,1.16,1.16,0,0,1-1.07.71Z"/><path class="cls-2" d="M40.74,26H5.49a.25.25,0,0,1-.18-.41L9,21.44a.23.23,0,0,1,.18-.08h27.4a.22.22,0,0,1,.17.07l4.17,4.16A.25.25,0,0,1,40.74,26Z"/><path class="cls-1" d="M4.89,27l2.89,2.22A2,2,0,0,0,9,29.58H37.89A2,2,0,0,0,39.32,29l2-2"/><polyline class="cls-2" points="9 21.44 11.92 24.52 10.77 26.01"/><polyline class="cls-2" points="11.92 24.52 34.53 24.52 36.58 21.36"/><line class="cls-2" x1="34.53" y1="24.52" x2="36.17" y2="26.01"/><circle class="cls-2" cx="46" cy="25.33" r="0.64"/><path class="cls-2" d="M46.38,24.58l-2.86-1.85s-.84.36-.87.89l3.1,2.09"/><path class="cls-3" d="M41.34,23.77s1-.72,1.39-.69"/><line class="cls-2" x1="41.93" y1="24.32" x2="42.86" y2="23.77"/><path class="cls-2" d="M40.73,27.91s.15.65.42.65,4.61-3.3,4.61-3.3l.39.53s-4.65,3.73-5.09,3.73S40,28.67,40,28.67"/></svg>