<svg id="圖層_1" data-name="圖層 1" xmlns="http://www.w3.org/2000/svg" viewBox="0 0 50 50"><defs><style>.cls-1,.cls-2,.cls-3{fill:none;stroke:#fef760;stroke-linejoin:round;}.cls-1,.cls-3{stroke-linecap:round;}.cls-2{stroke-linecap:square;}.cls-3{stroke-width:0.25px;}</style></defs><title>icon</title><path class="cls-1" d="M14.13,15.3a2,2,0,0,0,0,.45V37.54"/><path class="cls-1" d="M35.85,15.52a1.64,1.64,0,0,1,0,.23V37.54"/><path class="cls-2" d="M23.87,20.93a3.57,3.57,0,0,0,0,.47V41.84"/><polyline class="cls-2" points="27.53 20.83 27.53 30.12 27.53 31.56"/><path class="cls-3" d="M14,15.2c0,2.86,4.91,5.18,11,5.18"/><path class="cls-3" d="M25,20.38c6.06,0,11-2.32,11-5.18"/><ellipse class="cls-1" cx="25" cy="13.45" rx="10.97" ry="5.97"/><ellipse class="cls-3" cx="25" cy="13.45" rx="6.87" ry="3.74"/><line class="cls-1" x1="27.53" y1="30.58" x2="27.53" y2="32.16"/><line class="cls-1" x1="23.83" y1="40.87" x2="23.83" y2="42.45"/></svg>