<svg id="圖層_1" data-name="圖層 1" xmlns="http://www.w3.org/2000/svg" viewBox="0 0 50 50"><defs><style>.cls-1,.cls-2{fill:none;stroke:#fef760;stroke-linecap:round;stroke-linejoin:round;}.cls-2{stroke-width:0.25px;}</style></defs><title>icon</title><ellipse class="cls-1" cx="20.37" cy="13.27" rx="9.52" ry="2.44" transform="translate(-3.45 8.4) rotate(-21.52)"/><path class="cls-1" d="M20.77,40.22c.5,1.26,4.86.71,9.75-1.22s8.45-4.51,8-5.76"/><line class="cls-1" x1="38.48" y1="33.24" x2="29.23" y2="9.78"/><line class="cls-1" x1="20.77" y1="40.22" x2="11.52" y2="16.76"/><path class="cls-2" d="M22.06,17.53C27,15.6,30.51,13,30,11.77"/><path class="cls-2" d="M12.3,18.75c.5,1.26,4.87.71,9.76-1.22"/><path class="cls-2" d="M22.5,18.66c4.89-1.93,8.45-4.51,8-5.77"/><path class="cls-2" d="M12.75,19.88c.49,1.25,4.86.71,9.75-1.22"/><path class="cls-2" d="M22.94,19.78c4.89-1.92,8.46-4.51,8-5.76"/><path class="cls-2" d="M13.19,21c.5,1.26,4.86.71,9.75-1.22"/><path class="cls-2" d="M20.11,38.53c.49,1.26,4.86.71,9.75-1.22s8.45-4.51,8-5.76"/><path class="cls-2" d="M19.66,37.41c.5,1.25,4.86.71,9.75-1.22s8.45-4.51,8-5.77"/><path class="cls-2" d="M19.22,36.28c.49,1.26,4.86.71,9.75-1.22s8.45-4.51,8-5.76"/><path class="cls-2" d="M16.33,21.68s1.91,1.64.35,1.67a5.85,5.85,0,0,1-1.54-.17c-.69-.17-.48-.93-.05-1.49"/></svg>