<svg id="圖層_1" data-name="圖層 1" xmlns="http://www.w3.org/2000/svg" viewBox="0 0 50 50"><defs><style>.cls-1{fill:none;stroke:#fef760;stroke-linecap:round;stroke-linejoin:round;}</style></defs><title>icon</title><path class="cls-1" d="M17.4,16.58A21.81,21.81,0,0,1,26.53,15c8.24,0,14.92,3.47,14.92,7.74s-6.68,7.74-14.92,7.74S11.61,27,11.61,22.7a4.64,4.64,0,0,1,1.85-4"/><path class="cls-1" d="M11.61,22.7s.53,15.43,14.92,15.43c14.21,0,14.92-15.43,14.92-15.43"/><path class="cls-1" d="M18.4,36.71l-.9,1.41a2.29,2.29,0,0,0-.11,2.29c.94,1.74,3.36,3.57,9.14,3.57,4.63,0,7-.8,8.22-2.43a3.55,3.55,0,0,0,0-4.08l-.52-.76"/><path class="cls-1" d="M24.44,30.31,7.51,11.12a1.4,1.4,0,0,1,1.05-2.3h.06c1.9.72,20.68,21.48,20.68,21.48"/></svg>