<svg id="圖層_1" data-name="圖層 1" xmlns="http://www.w3.org/2000/svg" viewBox="0 0 50 50"><defs><style>.cls-1,.cls-2{fill:none;stroke:#fef760;stroke-linecap:round;stroke-linejoin:round;}.cls-2{stroke-width:0.25px;}</style></defs><title>icon</title><line class="cls-1" x1="12.19" y1="11.38" x2="12.19" y2="38.69"/><line class="cls-1" x1="37.81" y1="11.38" x2="37.81" y2="38.69"/><path class="cls-1" d="M25,15.51c-7.08,0-12.81-1.88-12.81-4.2"/><path class="cls-1" d="M37.81,11.31c0,2.32-5.73,4.2-12.81,4.2"/><path class="cls-1" d="M25,42.89c-7.08,0-12.81-1.88-12.81-4.2"/><path class="cls-1" d="M37.81,38.69c0,2.32-5.73,4.2-12.81,4.2"/><path class="cls-1" d="M25,7.11c7.08,0,12.81,1.88,12.81,4.2"/><path class="cls-1" d="M12.19,11.31c0-2.32,5.73-4.2,12.81-4.2"/><ellipse class="cls-2" cx="17.15" cy="11.97" rx="2.3" ry="0.65"/><path class="cls-2" d="M25,24.43c-7.08,0-12.81-1.88-12.81-4.2"/><path class="cls-2" d="M37.81,20.23c0,2.32-5.73,4.2-12.81,4.2"/><path class="cls-2" d="M25,35.19c-7.08,0-12.81-1.88-12.81-4.2"/><path class="cls-2" d="M37.81,31c0,2.32-5.73,4.2-12.81,4.2"/></svg>