<svg id="圖層_1" data-name="圖層 1" xmlns="http://www.w3.org/2000/svg" viewBox="0 0 50 50"><defs><style>.cls-1,.cls-2{fill:none;stroke:#fef760;stroke-linecap:round;stroke-linejoin:round;}.cls-2{stroke-width:0.25px;}</style></defs><title>icon</title><ellipse class="cls-1" cx="31.36" cy="11.15" rx="3.03" ry="11.82" transform="translate(9.48 36.23) rotate(-68.48)"/><path class="cls-1" d="M30.86,44.62c-.61,1.56-6,.88-12.11-1.51S8.26,37.51,8.87,36"/><line class="cls-1" x1="8.87" y1="35.95" x2="20.36" y2="6.81"/><line class="cls-1" x1="30.86" y1="44.62" x2="42.35" y2="15.49"/><path class="cls-2" d="M29.27,16.44c-6.07-2.39-10.5-5.6-9.89-7.16"/><path class="cls-2" d="M41.38,18c-.62,1.56-6,.88-12.11-1.52"/><path class="cls-2" d="M28.72,17.84c-6.08-2.39-10.5-5.6-9.89-7.16"/><path class="cls-2" d="M40.83,19.36c-.62,1.55-6,.88-12.11-1.52"/><path class="cls-2" d="M28.17,19.24c-6.08-2.4-10.5-5.6-9.89-7.16"/><path class="cls-2" d="M40.28,20.75c-.62,1.56-6,.88-12.11-1.51"/><path class="cls-2" d="M31.69,42.52c-.61,1.56-6,.88-12.11-1.51s-10.5-5.6-9.88-7.16"/><path class="cls-2" d="M32.24,41.13c-.61,1.55-6,.88-12.11-1.52S9.63,34,10.25,32.45"/><path class="cls-2" d="M32.79,39.73c-.61,1.56-6,.88-12.11-1.52s-10.49-5.6-9.88-7.15"/><path class="cls-2" d="M36.37,21.6s-2.36,2-.43,2.07a7.18,7.18,0,0,0,1.92-.21c.85-.22.59-1.16.06-1.85"/></svg>