<svg id="圖層_1" data-name="圖層 1" xmlns="http://www.w3.org/2000/svg" viewBox="0 0 50 50"><defs><style>.cls-1,.cls-2{fill:none;stroke:#fef760;stroke-linecap:round;stroke-linejoin:round;}.cls-2{stroke-width:0.25px;}</style></defs><title>icon</title><ellipse class="cls-1" cx="30.95" cy="9.9" rx="3.14" ry="12.25" transform="translate(10.39 35.07) rotate(-68.48)"/><path class="cls-1" d="M30.44,44.59c-.63,1.62-6.25.91-12.55-1.57S7,37.22,7.65,35.6"/><line class="cls-1" x1="7.65" y1="35.6" x2="19.56" y2="5.41"/><line class="cls-1" x1="30.44" y1="44.59" x2="42.35" y2="14.4"/><path class="cls-2" d="M28.79,15.39C22.5,12.91,17.91,9.58,18.55,8"/><path class="cls-2" d="M41.34,17c-.64,1.61-6.26.91-12.55-1.57"/><path class="cls-2" d="M28.22,16.84C21.92,14.35,17.34,11,18,9.42"/><path class="cls-2" d="M40.77,18.41c-.64,1.61-6.26.91-12.55-1.57"/><path class="cls-2" d="M27.65,18.29c-6.3-2.49-10.88-5.81-10.25-7.42"/><path class="cls-2" d="M40.2,19.86c-.64,1.61-6.26.91-12.55-1.57"/><path class="cls-2" d="M31.3,42.42c-.64,1.61-6.26.91-12.55-1.57S7.87,35,8.51,33.43"/><path class="cls-2" d="M31.87,41c-.64,1.61-6.25.91-12.55-1.57S8.44,33.6,9.08,32"/><path class="cls-2" d="M32.44,39.52c-.63,1.61-6.25.91-12.55-1.57S9,32.15,9.65,30.53"/><path class="cls-2" d="M36.16,20.73s-2.45,2.11-.45,2.15a7.71,7.71,0,0,0,2-.22c.88-.23.61-1.2.06-1.92"/></svg>