<svg id="圖層_1" data-name="圖層 1" xmlns="http://www.w3.org/2000/svg" viewBox="0 0 50 50"><defs><style>.cls-1,.cls-2{fill:none;stroke:#fef760;stroke-linejoin:round;}.cls-2{stroke-width:0.25px;}</style></defs><title>icon</title><ellipse class="cls-1" cx="25.69" cy="15.73" rx="13.38" ry="8.76"/><path class="cls-1" d="M25.69,41.51c-7-.27-10.92-2.61-12.56-5.54a6.89,6.89,0,0,1-.82-3.4V15.73"/><path class="cls-1" d="M25.69,41.51c7.52,0,11.35-2.31,12.82-5.85a8.05,8.05,0,0,0,.57-3.14V15.73"/><rect class="cls-2" x="9.83" y="32.38" width="2.48" height="1.41"/><path class="cls-2" d="M25.69,17.43A16.45,16.45,0,0,1,36.43,21"/><path class="cls-2" d="M15,21a16.47,16.47,0,0,1,10.74-3.53"/><path class="cls-2" d="M25.69,34.8c-7.39,0-13.38-3.92-13.38-8.76"/><path class="cls-2" d="M39.08,26c0,4.84-6,8.76-13.39,8.76"/></svg>